<?xml version="1.0" encoding="utf-8"?>
<!-- Generator: Adobe Illustrator 24.3.0, SVG Export Plug-In . SVG Version: 6.00 Build 0)  -->
<svg version="1.1"
	 id="svg3085" inkscape:export-filename="/Users/carpelinx/Documents/IPU/ipu-logo-2015-universitaet/ipu-logo-2015-universitaet-dev-zonen.png" inkscape:export-xdpi="180" inkscape:export-ydpi="180" inkscape:version="0.91 r13725" sodipodi:docname="ipu-logo-2015-universitaet-NEU2.svg" xmlns:cc="http://creativecommons.org/ns#" xmlns:dc="http://purl.org/dc/elements/1.1/" xmlns:inkscape="http://www.inkscape.org/namespaces/inkscape" xmlns:rdf="http://www.w3.org/1999/02/22-rdf-syntax-ns#" xmlns:sodipodi="http://sodipodi.sourceforge.net/DTD/sodipodi-0.dtd" xmlns:svg="http://www.w3.org/2000/svg"
	 xmlns="http://www.w3.org/2000/svg" xmlns:xlink="http://www.w3.org/1999/xlink" x="0px" y="0px" viewBox="83 412.9 190 50"
	 style="enable-background:new 83 412.9 190 50;" xml:space="preserve">
<style type="text/css">
	.st0{fill:#5F6062;}
	.st1{fill:#EE7C28;}
</style>
<g>
	<path id="path5_1_" class="st0" d="M111.8,426.8C111.8,426.8,111.8,426.8,111.8,426.8C111.9,426.8,111.9,426.8,111.8,426.8
		c0.2,0.2,0.4,0.3,0.7,0.5c0.1,0.1,0.2,0.2,0.3,0.3c0,0,0.1,0.1,0.1,0.1c2.2,2,3.6,4.8,3.6,8c0,5.9-4.8,10.7-10.7,10.7
		c-3.7,0-7-1.9-8.9-4.7v21.1h36v-36H111.8z"/>
	<path id="path7_1_" inkscape:connector-curvature="0" class="st1" d="M105.9,444.5c4.9,0,8.9-4,8.9-8.9c0-4.9-4-8.9-8.9-8.9
		s-8.9,4-8.9,8.9C97,440.5,100.9,444.5,105.9,444.5"/>
	<path id="path9_1_" inkscape:connector-curvature="0" class="st0" d="M91.9,430.7c4.9,0,8.9-4,8.9-8.9c0-4.9-4-8.9-8.9-8.9
		s-8.9,4-8.9,8.9C83,426.7,87.1,430.7,91.9,430.7"/>
	<path class="st0" d="M241.8,435.8v-1.1l-3.7,0v-7.9h-1.3v9H241.8z M232.1,432.4h-3.1l1.5-4.5h0L232.1,432.4z M234.6,435.8l-3.2-9
		h-1.5l-3.2,9h1.3l0.8-2.3h3.7l0.8,2.3H234.6z M224.6,435.8v-9h-1.2l0,7h0l-4.1-7h-1.4v9h1.2l0-7h0l4.1,7H224.6z M214.3,431.9
		c0,1.9-0.8,2.9-2.4,2.9c-1.6,0-2.3-1.1-2.3-2.9v-1.3c0-1.9,0.8-2.9,2.4-2.9c1.6,0,2.3,1.1,2.3,2.9V431.9z M215.7,431.3
		c0-2.7-0.6-4.7-3.6-4.7c-3.1,0-3.8,2-3.8,4.7c0,2.7,0.5,4.7,3.7,4.7C215,435.9,215.7,434,215.7,431.3 M206.1,426.8h-1.3v9h1.3
		V426.8z M202.9,427.9v-1.1h-6.5v1.1h2.6v7.9h1.3v-7.9H202.9z M193.3,432.4h-3.1l1.5-4.5h0L193.3,432.4z M195.8,435.8l-3.2-9H191
		l-3.2,9h1.3l0.8-2.3h3.7l0.8,2.3H195.8z M185.7,435.8v-9h-1.2l0,7h0l-4.1-7H179v9h1.2l0-7h0l4.1,7H185.7z M175.2,429.4
		c0,1-0.7,1.6-2.1,1.6h-1.3v-3.2h1.5C174.6,427.8,175.2,428.4,175.2,429.4 M177,435.8l-1.5-3.3c-0.3-0.7-0.8-0.8-0.8-0.8v0
		c1.2-0.3,1.9-1.1,1.9-2.3c0-1.8-1.2-2.5-3.1-2.5h-2.9v9h1.3v-3.7h1.3c0.5,0,0.9,0.3,1.2,0.9l1.2,2.8H177z M168.1,435.8v-1.1l-3.7,0
		v-3.1h3.4v-1.1h-3.4v-2.7l3.7,0v-1.1h-5.1v9H168.1z M161.2,427.9v-1.1h-6.5v1.1h2.6v7.9h1.3v-7.9H161.2z M152.8,435.8v-9h-1.2l0,7
		h0l-4.1-7h-1.4v9h1.2l0-7h0l4.1,7H152.8z M143.4,426.8h-1.3v9h1.3V426.8z"/>
	<polygon class="st0" points="248.9,435.8 248.9,434.7 245.2,434.7 245.2,431.6 248.6,431.6 248.6,430.6 245.2,430.6 245.2,427.8 
		248.9,427.8 248.9,426.8 243.9,426.8 243.9,435.8 	"/>
	<path class="st1" d="M241.2,440.3h-1.3v9h1.3V440.3z M238.1,441.3v-1.1h-6.4v1.1h2.6v7.9h1.3v-7.9H238.1z M230.8,440.3h-1.4
		l-2.3,4.7h0l-2.3-4.7h-1.4l3.1,5.8v3.1h1.3v-3.1L230.8,440.3z M223.6,449.2v-1.1l-3.6,0v-7.9h-1.3v9H223.6z M214.1,445.9h-3
		l1.5-4.5h0L214.1,445.9z M216.5,449.2l-3.2-9h-1.5l-3.2,9h1.3l0.8-2.3h3.7l0.8,2.3H216.5z M206.7,449.2v-9h-1.2l0,7h0l-4.1-7h-1.4
		v9h1.2l0-7h0l4.1,7H206.7z M195.5,445.9h-3l1.5-4.5h0L195.5,445.9z M197.9,449.2l-3.2-9h-1.5l-3.2,9h1.3l0.8-2.3h3.7l0.8,2.3H197.9
		z M187.4,445.4c0,1.9-0.8,2.9-2.3,2.9c-1.6,0-2.3-1.1-2.3-2.9v-1.3c0-1.9,0.8-2.9,2.3-2.9c1.6,0,2.3,1.1,2.3,2.9V445.4z
		 M188.7,444.7c0-2.7-0.5-4.7-3.6-4.7c-3.1,0-3.7,2-3.7,4.7c0,2.7,0.5,4.7,3.6,4.7C188,449.4,188.7,447.5,188.7,444.7 M179.3,449.2
		v-9H178v3.8h-4v-3.8h-1.3v9h1.3v-4.1h4v4.1H179.3z M170.8,448.8l-0.1-1.1c-0.6,0.4-1.2,0.6-2,0.6c-1.5,0-2.5-0.8-2.5-2.9v-1.3
		c0-1.9,0.8-2.9,2.5-2.9c0.7,0,1.3,0.2,1.9,0.5l0.1-1.1c-0.5-0.2-1.1-0.4-2-0.4c-3.1,0-3.7,2.2-3.7,4.7c0,2.5,0.5,4.6,3.5,4.6
		C169.4,449.4,170.1,449.2,170.8,448.8 M164.1,440.3h-1.4l-2.3,4.7h0l-2.3-4.7h-1.4l3.1,5.8v3.1h1.3v-3.1L164.1,440.3z M155.3,446.8
		c0-1.4-0.9-2.2-2.3-2.7l-0.3-0.1c-1-0.4-1.6-0.8-1.6-1.5c0-0.9,0.7-1.3,1.8-1.3c0.8,0,1.4,0.2,2,0.5l0.1-1.1
		c-0.6-0.3-1.2-0.4-2.2-0.4c-1.9,0-3,1-3,2.4c0,1.5,0.9,2.2,2.3,2.7l0.3,0.1c0.9,0.3,1.7,0.8,1.7,1.6c0,0.8-0.6,1.5-2,1.5
		c-0.9,0-1.7-0.3-2.3-0.6l-0.1,1.2c0.6,0.3,1.5,0.5,2.5,0.5C154.2,449.4,155.3,448.3,155.3,446.8 M146.6,443c0,1.1-0.5,1.8-2.2,1.8
		h-1.1v-3.4h1.3C146.1,441.3,146.6,441.8,146.6,443 M148,442.9c0-1.9-1.2-2.7-3.2-2.7h-2.7v9h1.3v-3.4h1.2
		C146.8,445.8,148,444.8,148,442.9"/>
	<polygon class="st1" points="272,449.2 272,448.2 268.2,448.2 268.2,445.1 271.6,445.1 271.6,444 268.2,444 268.2,441.3 272,441.3 
		272,440.3 266.9,440.3 266.9,449.2 	"/>
	<polygon class="st1" points="264.5,449.2 264.5,440.3 263.2,440.3 263.2,444 259.2,444 259.2,440.3 257.9,440.3 257.9,449.2 
		259.2,449.2 259.2,445.1 263.2,445.1 263.2,449.2 	"/>
	<path class="st1" d="M256,448.8l-0.1-1.1c-0.6,0.4-1.2,0.6-2,0.6c-1.5,0-2.5-0.8-2.5-2.9v-1.3c0-1.9,0.8-2.9,2.5-2.9
		c0.7,0,1.3,0.2,1.9,0.5l0.1-1.1c-0.5-0.2-1.1-0.4-2-0.4c-3.1,0-3.7,2.2-3.7,4.7c0,2.5,0.5,4.6,3.5,4.6
		C254.7,449.4,255.4,449.2,256,448.8"/>
	<path class="st1" d="M248.7,446.8c0-1.4-0.9-2.2-2.3-2.7l-0.3-0.1c-1-0.4-1.6-0.8-1.6-1.5c0-0.9,0.7-1.3,1.8-1.3
		c0.8,0,1.4,0.2,2,0.5l0.1-1.1c-0.6-0.3-1.2-0.4-2.2-0.4c-1.9,0-3,1-3,2.4c0,1.5,0.9,2.2,2.3,2.7l0.3,0.1c0.9,0.3,1.7,0.8,1.7,1.6
		c0,0.8-0.6,1.5-2,1.5c-0.9,0-1.7-0.3-2.3-0.6l-0.1,1.2c0.6,0.3,1.5,0.5,2.5,0.5C247.6,449.4,248.7,448.3,248.7,446.8"/>
	<path class="st0" d="M206,454.8v-1.1h-6.4v1.1h2.6v7.9h1.3v-7.9H206z M197.7,453.7h-1.3v9h1.3V453.7z M194.2,460.3
		c0-1.4-0.9-2.2-2.3-2.7l-0.4-0.1c-1-0.4-1.6-0.8-1.6-1.5c0-0.9,0.7-1.3,1.8-1.3c0.8,0,1.4,0.2,2,0.5l0.1-1.1
		c-0.6-0.3-1.2-0.4-2.2-0.4c-1.9,0-3,1-3,2.4c0,1.5,0.9,2.2,2.3,2.7l0.4,0.1c1,0.3,1.7,0.8,1.7,1.6c0,0.8-0.6,1.5-2,1.5
		c-0.9,0-1.7-0.3-2.3-0.6l-0.1,1.2c0.6,0.3,1.5,0.5,2.5,0.5C193.1,462.9,194.2,461.8,194.2,460.3 M185.1,456.4c0,1-0.7,1.6-2,1.6
		h-1.3v-3.2h1.5C184.6,454.8,185.1,455.3,185.1,456.4 M186.9,462.7l-1.5-3.3c-0.3-0.7-0.8-0.8-0.8-0.8v0c1.2-0.3,1.9-1.1,1.9-2.3
		c0-1.8-1.2-2.5-3.1-2.5h-2.9v9h1.3V459h1.3c0.5,0,0.9,0.3,1.1,0.9l1.2,2.8H186.9z M178.2,462.7v-1.1l-3.7,0v-3.1h3.4v-1.1h-3.4
		v-2.7l3.7,0v-1.1h-5v9H178.2z M171.3,453.7H170l-2.5,7.8h0l-2.5-7.8h-1.4l3,9h1.5L171.3,453.7z M161.8,453.7h-1.3v9h1.3V453.7z
		 M157.9,462.7v-9h-1.2l0,7h0l-4.1-7h-1.4v9h1.2l0-7h0l4.1,7H157.9z M148.6,459.7v-6h-1.3v6c0,1.4-0.6,2.1-2,2.1c-1.3,0-2-0.8-2-2.1
		v-6h-1.3v6c0,2.3,1.1,3.2,3.2,3.2C147.4,462.9,148.6,462,148.6,459.7"/>
	<path class="st0" d="M246.8,462.8l-1.2-2.8c-0.2-0.6-0.7-0.9-1.2-0.9h-1.4v3.7h-1.3v-9h3c2,0,3.2,0.7,3.2,2.5c0,1.2-0.8,2-2,2.3v0
		c0,0,0.5,0.1,0.9,0.8l1.6,3.4H246.8z M244.7,454.8h-1.6v3.2h1.4c1.4,0,2.1-0.6,2.1-1.6C246.6,455.3,246,454.8,244.7,454.8z"/>
	<polygon class="st0" points="239.3,462.7 239.3,461.7 235.6,461.7 235.6,458.6 238.9,458.6 238.9,457.5 235.6,457.5 235.6,454.8 
		239.3,454.8 239.3,453.7 234.3,453.7 234.3,462.7 	"/>
	<rect x="256.8" y="453.7" class="st0" width="1.3" height="9"/>
	<polygon class="st0" points="267.1,462.7 267.1,453.7 265.9,453.7 265.9,460.7 265.9,460.7 261.9,453.7 260.5,453.7 260.5,462.7 
		261.7,462.7 261.7,455.7 261.7,455.7 265.8,462.7 	"/>
	<polygon class="st0" points="255.1,462.7 255.1,461.7 251.4,461.6 251.4,453.7 250,453.7 250,462.7 	"/>
	<path class="st0" d="M228.7,462.7h-2.8v-9h2.9c1.6,0,3.1,0.4,3.1,2.2c0,1.3-0.9,1.8-1.7,2v0c0.7,0.1,1.9,0.5,1.9,2.1
		C232.1,461.8,231,462.7,228.7,462.7z M228.7,454.7h-1.4v2.8h1.3c1.3,0,1.9-0.5,1.9-1.5C230.4,455.1,229.7,454.7,228.7,454.7z
		 M228.6,458.5h-1.4v3.2h1.3c1.4,0,2.2-0.5,2.2-1.6C230.7,459,229.9,458.5,228.6,458.5z"/>
	<path class="st0" d="M212.9,462.7l-0.8-2.3h-3.8l-0.8,2.3h-1.3l3.3-9h1.6l3.3,9H212.9z M208.6,452.8c-0.5,0-0.9-0.4-0.9-0.8
		s0.4-0.8,0.9-0.8c0.5,0,0.8,0.4,0.8,0.8S209,452.8,208.6,452.8z M210.2,454.9L210.2,454.9l-1.6,4.5h3.1L210.2,454.9z M211.8,452.8
		c-0.5,0-0.8-0.4-0.8-0.8s0.4-0.8,0.8-0.8s0.8,0.4,0.8,0.8S212.3,452.8,211.8,452.8z"/>
	<path class="st0" d="M218.5,454.8v7.9h-1.3v-7.9h-2.7v-1.1h6.7v1.1H218.5z"/>
	
		<sodipodi:namedview  bordercolor="#666666" borderopacity="1.0" id="base" inkscape:current-layer="layer1" inkscape:cx="234.21579" inkscape:cy="67.061085" inkscape:document-units="px" inkscape:pageopacity="0.0" inkscape:pageshadow="2" inkscape:window-height="1326" inkscape:window-maximized="1" inkscape:window-width="2560" inkscape:window-x="0" inkscape:window-y="1" inkscape:zoom="2.8284271" pagecolor="#ffffff" showgrid="false">
		</sodipodi:namedview>
</g>
</svg>
