<?xml version="1.0" encoding="utf-8"?>
<!-- Generator: Adobe Illustrator 24.3.0, SVG Export Plug-In . SVG Version: 6.00 Build 0)  -->
<svg version="1.1"
	 id="svg3085" inkscape:export-filename="/Users/carpelinx/Documents/IPU/ipu-logo-2015-universitaet/ipu-logo-2015-universitaet-dev-zonen.png" inkscape:export-xdpi="180" inkscape:export-ydpi="180" inkscape:version="0.91 r13725" sodipodi:docname="ipu-logo-2015-universitaet-NEU2.svg" xmlns:cc="http://creativecommons.org/ns#" xmlns:dc="http://purl.org/dc/elements/1.1/" xmlns:inkscape="http://www.inkscape.org/namespaces/inkscape" xmlns:rdf="http://www.w3.org/1999/02/22-rdf-syntax-ns#" xmlns:sodipodi="http://sodipodi.sourceforge.net/DTD/sodipodi-0.dtd" xmlns:svg="http://www.w3.org/2000/svg"
	 xmlns="http://www.w3.org/2000/svg" xmlns:xlink="http://www.w3.org/1999/xlink" x="0px" y="0px" viewBox="-76 298.9 442 244"
	 style="enable-background:new -76 298.9 442 244;" xml:space="preserve">
<style type="text/css">
	.st0{fill:#FFFFFF;}
	.st1{fill:#5F6062;}
	.st2{fill:#EE7C28;}
</style>
<rect id="rect3046_8_" x="-76" y="298.9" class="st0" width="442" height="244"/>
<g>
	<path id="path5_1_" class="st1" d="M18.7,399.5C18.7,399.5,18.7,399.5,18.7,399.5C18.7,399.5,18.7,399.5,18.7,399.5
		c0.5,0.3,0.9,0.6,1.3,0.9c0.2,0.2,0.4,0.3,0.6,0.5c0.1,0.1,0.2,0.2,0.3,0.2c4.3,3.8,7,9.3,7,15.4c0,11.3-9.3,20.6-20.6,20.6
		c-7.1,0-13.4-3.6-17.1-9.1v40.6h69.2v-69.2H18.7z"/>
	<path id="path7_1_" inkscape:connector-curvature="0" class="st2" d="M7.2,433.7c9.4,0,17.1-7.7,17.1-17.1
		c0-9.4-7.7-17.1-17.1-17.1s-17.1,7.7-17.1,17.1C-9.9,426-2.3,433.7,7.2,433.7"/>
	<path id="path9_1_" inkscape:connector-curvature="0" class="st1" d="M-19.7,407c9.4,0,17.1-7.7,17.1-17.1
		c0-9.4-7.7-17.1-17.1-17.1s-17.1,7.7-17.1,17.1C-36.8,399.3-29,407-19.7,407"/>
	<path class="st1" d="M268.8,416.8v-2l-7.1-0.1v-15.2h-2.5v17.3H268.8z M250.2,410.4h-5.9l3-8.6h0L250.2,410.4z M255,416.8
		l-6.2-17.3h-3l-6.2,17.3h2.5l1.5-4.4h7.2l1.5,4.4H255z M235.7,416.8v-17.3h-2.4l0.1,13.4h0l-8-13.4h-2.7v17.3h2.4l-0.1-13.4h0
		l8,13.4H235.7z M215.9,409.4c0,3.6-1.5,5.6-4.6,5.6c-3.1,0-4.5-2-4.5-5.6v-2.6c0-3.6,1.5-5.6,4.6-5.6c3.1,0,4.5,2,4.5,5.6V409.4z
		 M218.5,408.2c0-5.2-1.1-9-7-9c-6,0-7.2,3.8-7.2,9c0,5.2,1,9,7,9C217.2,417.1,218.5,413.4,218.5,408.2 M200.1,399.5h-2.5v17.3h2.5
		V399.5z M194,401.6v-2.1h-12.6v2.1h5v15.2h2.5v-15.2H194z M175.4,410.4h-5.9l3-8.6h0L175.4,410.4z M180.2,416.8l-6.2-17.3h-3
		l-6.2,17.3h2.5l1.5-4.4h7.2l1.5,4.4H180.2z M160.9,416.8v-17.3h-2.4l0.1,13.4h0l-8-13.4h-2.6v17.3h2.4l-0.1-13.4h0l8,13.4H160.9z
		 M140.6,404.6c0,1.9-1.3,3.1-4,3.1H134v-6.2h3C139.5,401.5,140.6,402.6,140.6,404.6 M144,416.8l-3-6.4c-0.6-1.4-1.6-1.5-1.6-1.5v0
		c2.3-0.6,3.7-2.1,3.7-4.4c0-3.5-2.3-4.9-6-4.9h-5.7v17.3h2.5v-7.1h2.6c0.9,0,1.8,0.5,2.2,1.7l2.3,5.4H144z M127,416.8v-2l-7.2,0
		v-5.9h6.6v-2h-6.6v-5.2l7.2,0v-2h-9.7v17.3H127z M113.7,401.6v-2.1h-12.6v2.1h5v15.2h2.5v-15.2H113.7z M97.6,416.8v-17.3h-2.4
		l0.1,13.4h0l-8-13.4h-2.7v17.3H87l-0.1-13.4h0l8,13.4H97.6z M79.4,399.5h-2.5v17.3h2.5V399.5z"/>
	<polygon class="st1" points="282.5,416.8 282.5,414.8 275.3,414.8 275.3,408.9 281.9,408.9 281.9,406.8 275.3,406.8 275.3,401.6 
		282.5,401.5 282.5,399.5 272.8,399.5 272.8,416.8 	"/>
	<path class="st2" d="M267.7,425.4h-2.5v17.3h2.5V425.4z M261.7,427.5v-2.1h-12.4v2.1h4.9v15.2h2.5v-15.2H261.7z M247.6,425.4H245
		l-4.5,9.1h0l-4.5-9.1h-2.8l6,11.3v6h2.5v-6L247.6,425.4z M233.8,442.7v-2l-7-0.1v-15.2h-2.5v17.3H233.8z M215.4,436.3h-5.8l2.9-8.6
		h0L215.4,436.3z M220.2,442.7l-6.1-17.3h-2.9l-6.1,17.3h2.5l1.5-4.4h7.1l1.5,4.4H220.2z M201.2,442.7v-17.3h-2.4l0.1,13.4h0
		l-7.8-13.4h-2.6v17.3h2.3l-0.1-13.4h0l7.8,13.4H201.2z M179.6,436.3h-5.8l2.9-8.6h0L179.6,436.3z M184.3,442.7l-6.1-17.3h-2.9
		l-6.1,17.3h2.5l1.5-4.4h7.1l1.5,4.4H184.3z M164,435.4c0,3.6-1.5,5.6-4.5,5.6c-3,0-4.4-2-4.4-5.6v-2.6c0-3.6,1.5-5.6,4.5-5.6
		c3,0,4.4,2,4.4,5.6V435.4z M166.6,434.1c0-5.2-1-9-6.9-9c-5.9,0-7.1,3.8-7.1,9c0,5.2,1,9,6.9,9
		C165.3,443.1,166.6,439.3,166.6,434.1 M148.4,442.7v-17.3H146v7.2h-7.7v-7.2h-2.5v17.3h2.5v-7.9h7.7v7.9H148.4z M132.1,441.9
		l-0.1-2.2c-1.2,0.7-2.4,1.2-3.8,1.2c-2.9,0-4.8-1.6-4.8-5.6v-2.6c0-3.6,1.6-5.6,4.8-5.6c1.3,0,2.5,0.4,3.6,0.9l0.1-2.2
		c-1-0.5-2.1-0.9-3.9-0.9c-6,0-7.2,4.3-7.2,9c0,4.8,1,8.9,6.7,8.9C129.4,443.1,130.8,442.6,132.1,441.9 M119.2,425.4h-2.6l-4.5,9.1
		h0l-4.5-9.1h-2.8l6,11.3v6h2.5v-6L119.2,425.4z M102.4,438.1c0-2.7-1.7-4.2-4.5-5.1l-0.7-0.2c-2-0.7-3.1-1.5-3.1-3
		c0-1.7,1.3-2.5,3.5-2.5c1.5,0,2.8,0.5,3.9,1l0.1-2.2c-1.1-0.5-2.4-0.9-4.2-0.9c-3.7,0-5.8,1.8-5.8,4.6c0,2.9,1.7,4.2,4.4,5.1
		l0.7,0.2c1.8,0.6,3.3,1.6,3.3,3.1c0,1.6-1.2,2.8-3.8,2.8c-1.7,0-3.2-0.5-4.4-1.2l-0.1,2.3c1.2,0.6,2.9,1,4.7,1
		C100.2,443.1,102.4,440.9,102.4,438.1 M85.7,430.7c0,2-0.9,3.4-4.2,3.4h-2.1v-6.6h2.6C84.5,427.5,85.7,428.5,85.7,430.7
		 M88.2,430.6c0-3.6-2.3-5.1-6.1-5.1h-5.2v17.3h2.5v-6.6h2.3C86,436.1,88.2,434.3,88.2,430.6"/>
	<polygon class="st2" points="326.8,442.7 326.8,440.7 319.6,440.7 319.6,434.8 326.2,434.8 326.2,432.7 319.6,432.7 319.6,427.5 
		326.8,427.5 326.8,425.4 317.1,425.4 317.1,442.7 	"/>
	<polygon class="st2" points="312.4,442.7 312.4,425.4 310,425.4 310,432.7 302.3,432.7 302.3,425.4 299.8,425.4 299.8,442.7 
		302.3,442.7 302.3,434.8 310,434.8 310,442.7 	"/>
	<path class="st2" d="M296.2,441.9l-0.1-2.2c-1.2,0.7-2.4,1.2-3.8,1.2c-2.9,0-4.8-1.6-4.8-5.6v-2.6c0-3.6,1.6-5.6,4.8-5.6
		c1.3,0,2.5,0.4,3.6,0.9l0.1-2.2c-1-0.5-2.1-0.9-3.9-0.9c-6,0-7.2,4.3-7.2,9c0,4.8,1,8.9,6.7,8.9
		C293.5,443.1,294.9,442.6,296.2,441.9"/>
	<path class="st2" d="M282.1,438.1c0-2.7-1.7-4.2-4.5-5.1l-0.7-0.2c-2-0.7-3.1-1.5-3.1-3c0-1.7,1.3-2.5,3.5-2.5c1.5,0,2.8,0.5,3.9,1
		l0.1-2.2c-1.1-0.5-2.4-0.9-4.2-0.9c-3.7,0-5.8,1.8-5.8,4.6c0,2.9,1.7,4.2,4.4,5.1l0.7,0.2c1.8,0.6,3.3,1.6,3.3,3.1
		c0,1.6-1.2,2.8-3.8,2.8c-1.7,0-3.2-0.5-4.4-1.2l-0.1,2.3c1.2,0.6,2.9,1,4.7,1C280,443.1,282.1,440.9,282.1,438.1"/>
	<path class="st1" d="M199.9,453.4v-2.1h-12.4v2.1h5v15.2h2.5v-15.2H199.9z M184,451.4h-2.5v17.3h2.5V451.4z M177.2,464
		c0-2.7-1.7-4.2-4.5-5.1l-0.7-0.2c-2-0.7-3.2-1.5-3.2-3c0-1.7,1.3-2.5,3.5-2.5c1.5,0,2.8,0.5,3.9,1l0.1-2.2
		c-1.1-0.5-2.4-0.9-4.2-0.9c-3.7,0-5.9,1.8-5.9,4.6c0,2.9,1.8,4.2,4.4,5.1l0.7,0.2c1.8,0.6,3.3,1.6,3.3,3.1c0,1.6-1.2,2.8-3.9,2.8
		c-1.7,0-3.2-0.5-4.4-1.2l-0.1,2.3c1.2,0.6,2.9,1,4.7,1C175.1,469,177.2,466.8,177.2,464 M159.7,456.4c0,1.9-1.3,3.1-3.9,3.1h-2.6
		v-6.2h2.9C158.7,453.4,159.7,454.4,159.7,456.4 M163.1,468.7l-2.9-6.4c-0.6-1.4-1.6-1.5-1.6-1.5v0c2.3-0.6,3.7-2.1,3.7-4.4
		c0-3.5-2.2-4.9-5.9-4.9h-5.6v17.3h2.5v-7.1h2.5c0.9,0,1.7,0.5,2.2,1.7l2.2,5.4H163.1z M146.3,468.7v-2l-7.1,0v-5.9h6.5v-2h-6.5
		v-5.2l7.1,0v-2h-9.6v17.3H146.3z M133.1,451.4h-2.5l-4.8,15h0l-4.7-15h-2.6l5.9,17.3h2.9L133.1,451.4z M114.9,451.4h-2.5v17.3h2.5
		V451.4z M107.3,468.7v-17.3H105l0.1,13.4h0l-7.8-13.4h-2.6v17.3h2.3l-0.1-13.4h0l7.8,13.4H107.3z M89.4,462.9v-11.5h-2.5v11.5
		c0,2.7-1.2,4.1-3.8,4.1c-2.5,0-3.8-1.5-3.8-4.1v-11.5h-2.5v11.5c0,4.4,2,6.1,6.1,6.1C87.2,469,89.4,467.3,89.4,462.9"/>
	<path class="st1" d="M278.4,468.8l-2.3-5.4c-0.5-1.1-1.3-1.7-2.3-1.7h-2.6v7.1h-2.6v-17.4h5.8c3.8,0,6.2,1.4,6.2,4.9
		c0,2.3-1.5,3.9-3.8,4.5v0c0,0,1,0.2,1.7,1.5l3,6.5H278.4z M274.3,453.4h-3.1v6.2h2.7c2.7,0,4.1-1.2,4.1-3.2
		C277.9,454.5,276.9,453.4,274.3,453.4z"/>
	<polygon class="st1" points="263.9,468.7 263.9,466.6 256.8,466.6 256.8,460.7 263.3,460.7 263.3,458.7 256.8,458.7 256.8,453.4 
		263.9,453.4 263.9,451.4 254.3,451.4 254.3,468.7 	"/>
	<rect x="297.7" y="451.4" class="st1" width="2.5" height="17.3"/>
	<polygon class="st1" points="317.6,468.7 317.6,451.4 315.2,451.4 315.2,464.8 315.2,464.8 307.4,451.4 304.7,451.4 304.7,468.7 
		307.1,468.7 307,455.2 307.1,455.2 314.9,468.7 	"/>
	<polygon class="st1" points="294.3,468.7 294.3,466.6 287.2,466.6 287.2,451.4 284.6,451.4 284.6,468.7 	"/>
	<path class="st1" d="M243.5,468.7h-5.3v-17.4h5.5c3,0,5.9,0.8,5.9,4.2c0,2.6-1.8,3.5-3.2,3.9v0.1c1.3,0.2,3.8,1,3.8,4.1
		C250.1,467,248,468.7,243.5,468.7z M243.5,453.3h-2.7v5.3h2.5c2.4,0,3.7-1,3.7-2.8C246.9,453.9,245.6,453.3,243.5,453.3z
		 M243.4,460.6h-2.6v6.1h2.6c2.6,0,4.1-0.9,4.1-3C247.5,461.5,245.9,460.6,243.4,460.6z"/>
	<path class="st1" d="M213.2,468.7l-1.5-4.4h-7.3l-1.5,4.4h-2.6l6.4-17.3h3l6.3,17.3H213.2z M204.8,449.6c-0.9,0-1.6-0.7-1.6-1.5
		s0.7-1.5,1.6-1.5c0.9,0,1.6,0.7,1.6,1.5S205.7,449.6,204.8,449.6z M208,453.6L208,453.6l-3,8.6h6.1L208,453.6z M211.1,449.6
		c-0.9,0-1.6-0.7-1.6-1.5s0.7-1.5,1.6-1.5s1.6,0.7,1.6,1.5S212,449.6,211.1,449.6z"/>
	<path class="st1" d="M224,453.4v15.2h-2.6v-15.2h-5.1v-2.1h12.8v2.1H224z"/>
	
		<sodipodi:namedview  bordercolor="#666666" borderopacity="1.0" id="base" inkscape:current-layer="layer1" inkscape:cx="234.21579" inkscape:cy="67.061085" inkscape:document-units="px" inkscape:pageopacity="0.0" inkscape:pageshadow="2" inkscape:window-height="1326" inkscape:window-maximized="1" inkscape:window-width="2560" inkscape:window-x="0" inkscape:window-y="1" inkscape:zoom="2.8284271" pagecolor="#ffffff" showgrid="false">
		</sodipodi:namedview>
</g>
</svg>
