<?xml version="1.0" encoding="UTF-8" standalone="no"?>
<svg
   xmlns:dc="http://purl.org/dc/elements/1.1/"
   xmlns:cc="http://creativecommons.org/ns#"
   xmlns:rdf="http://www.w3.org/1999/02/22-rdf-syntax-ns#"
   xmlns:svg="http://www.w3.org/2000/svg"
   xmlns="http://www.w3.org/2000/svg"
   viewBox="0 0 595.39997 595.45868"
   height="595.45868"
   width="595.39996"
   xml:space="preserve"
   id="svg815"
   version="1.1"><metadata
     id="metadata821"><rdf:RDF><cc:Work
         rdf:about=""><dc:format>image/svg+xml</dc:format><dc:type
           rdf:resource="http://purl.org/dc/dcmitype/StillImage" /><dc:title></dc:title></cc:Work></rdf:RDF></metadata><defs
     id="defs819"><clipPath
       id="clipPath831"
       clipPathUnits="userSpaceOnUse"><path
         id="path829"
         d="M 0,595.28 H 595.28 V 0 H 0 Z" /></clipPath></defs><g
     transform="matrix(1.3333333,0,0,-1.3333333,-99.411198,692.34092)"
     id="g823"><g
       id="g825"><g
         clip-path="url(#clipPath831)"
         id="g827"><g
           transform="translate(521.1084,295.9587)"
           id="g833"><path
             id="path835"
             style="fill:#c7c7c6;fill-opacity:1;fill-rule:nonzero;stroke:none"
             d="m 0,0 c 0,-123.323 -99.964,-223.297 -223.275,-223.297 -123.311,0 -223.275,99.974 -223.275,223.297 0,123.324 99.964,223.297 223.275,223.297 C -99.964,223.297 0,123.324 0,0" /></g><g
           transform="translate(292.3335,184.3347)"
           id="g837"><path
             id="path839"
             style="fill:none;stroke:#1d1d1b;stroke-width:1;stroke-linecap:butt;stroke-linejoin:miter;stroke-miterlimit:10;stroke-dasharray:none;stroke-opacity:1"
             d="m 0,0 c 0,0 26.641,-1.099 30.38,-1.396 3.739,-0.298 33.234,2.532 38.196,2.492" /></g><g
           transform="translate(180.9888,320.8069)"
           id="g841"><path
             id="path843"
             style="fill:#ee760a;fill-opacity:1;fill-rule:nonzero;stroke:none"
             d="M 0,0 -8.046,-24.848 6.928,-31 9.011,-4.292 Z" /></g><g
           transform="translate(151.1665,326.5149)"
           id="g845"><path
             id="path847"
             style="fill:#ee760a;fill-opacity:1;fill-rule:nonzero;stroke:none"
             d="M 0,0 -5.792,-11.016 -8.75,-5.792 -8,-2.896 Z" /></g><g
           transform="translate(148.25,319.259)"
           id="g849"><path
             id="path851"
             style="fill:#ee760a;fill-opacity:1;fill-rule:nonzero;stroke:none"
             d="m 0,0 7.962,-0.074 5.83,-0.968 3.418,-1.976 1.335,-2.278 L 18.151,-7.202 14.437,-9.619 24.692,-23.3 8.75,-20.494 -3.417,-0.619 Z" /></g><g
           transform="translate(154.1665,322.6115)"
           id="g853"><path
             id="path855"
             style="fill:#ee760a;fill-opacity:1;fill-rule:nonzero;stroke:none"
             d="M 0,0 2.569,-1.097 4.223,-0.549 4.356,1.008 6.333,-0.138 7.362,0 8.52,2.152 9.5,0.653 l 1.238,0.5 3.028,4.174 2.103,1.883 h 2.29 l 2.766,-2.757 9.147,-7.806 2.464,11.381 -5.231,6.25 -5.222,3.75 H 8.865 L -0.364,5.156 Z" /></g><g
           transform="translate(246.1665,98.0114)"
           id="g857"><path
             id="path859"
             style="fill:#ee760a;fill-opacity:1;fill-rule:nonzero;stroke:none"
             d="M 0,0 17.833,-1.826 34.313,-2.284 48.5,-1.33 c 0,0 2.532,1.367 2.754,2.766 0.223,1.398 -24.796,10.487 -24.796,10.487 H 5.917 Z" /></g><g
           transform="translate(299.7197,249.947)"
           id="g861"><path
             id="path863"
             style="fill:#ee760a;fill-opacity:1;fill-rule:nonzero;stroke:none"
             d="m 0,0 -20.011,-22.502 93.225,-12.881 7.899,10.159 -1.999,5.066 0.706,3.934 17.877,19.856 0.366,2.128 6.05,3.914 -5.914,1.444 2.248,3.008 -6.325,-0.082 4.075,4.857 -11.124,0.962 5.29,5.121 c 0,0 -2.708,8.584 -2.541,9.459 0.166,0.875 -10.708,-0.834 -10.708,-0.834 L 57.696,16.148 V -5.76 L 4.782,-3.438 Z" /></g><g
           transform="translate(281.3711,281.7693)"
           id="g865"><path
             id="path867"
             style="fill:#ee760a;fill-opacity:1;fill-rule:nonzero;stroke:#010101;stroke-width:1;stroke-linecap:butt;stroke-linejoin:miter;stroke-miterlimit:10;stroke-dasharray:none;stroke-opacity:1"
             d="m 0,0 -16.352,-11.387 c 0,0 -1.429,-14.606 0,-20.798 0,0 39.054,-3.334 45.087,-3.334 6.034,0 45.246,-1.269 47.31,-2.063 v 21.908 L 97.463,2.189" /></g><g
           transform="translate(392.502,286.2234)"
           id="g869"><path
             id="path871"
             style="fill:#ee760a;fill-opacity:1;fill-rule:nonzero;stroke:none"
             d="M 0,0 C 0,0 -5.628,13.275 -1.815,16.388 1.998,19.5 -114.168,13.333 -114.168,13.333 l -9.342,-7.69 6.842,-8.915 h 10 z" /></g><g
           transform="translate(394.8838,142.2644)"
           id="g873"><path
             id="path875"
             style="fill:none;stroke:#010101;stroke-width:1;stroke-linecap:butt;stroke-linejoin:miter;stroke-miterlimit:10;stroke-dasharray:none;stroke-opacity:1"
             d="M 0,0 C 0,0 12.646,9.919 16.783,-5.883 21.896,-25.417 4.168,-19.937 4.168,-19.937" /></g><g
           transform="translate(389.8535,143.7654)"
           id="g877"><path
             id="path879"
             style="fill:none;stroke:#010101;stroke-width:1;stroke-linecap:butt;stroke-linejoin:miter;stroke-miterlimit:10;stroke-dasharray:none;stroke-opacity:1"
             d="M 0,0 C 0,0 10.885,7.416 14.134,-4.645 19.387,-24.143 -1.282,-20.437 -1.282,-20.437" /></g><g
           transform="translate(391.6602,169.0564)"
           id="g881"><path
             id="path883"
             style="fill:#ee760a;fill-opacity:1;fill-rule:nonzero;stroke:none"
             d="m 0,0 c 0,0 -4.413,-16.361 2.589,-25.764 l 0.635,-1.028 11.271,-5.415 V -30 -35.04 -37.434 -38.875 -42.534 -44 l 0.762,-4 -20.924,1.614 c 0,0 12.007,0.692 12.424,-12.17 0.416,-12.86 -14.667,-14.36 -17.25,-13.694 -2.584,0.667 -36.849,3.342 -52.133,2.463 -15.284,-0.879 -33.222,-2.254 -33.222,-2.254 l 2.021,3.312 -1.271,2.125 -3.893,1.424 c 0,0 2.535,5.639 1.081,11.18 -1.529,5.829 -8.5,7.271 -8.5,7.271 l -14.084,-2.579 -4.416,8.604 0.5,6.762 -0.5,6.026 0.416,7.75 0.219,9.833 L -100.244,0 Z" /></g><g
           transform="translate(394.8838,142.2644)"
           id="g885"><path
             id="path887"
             style="fill:#010101;fill-opacity:1;fill-rule:nonzero;stroke:#010101;stroke-width:1;stroke-linecap:butt;stroke-linejoin:miter;stroke-miterlimit:10;stroke-dasharray:none;stroke-opacity:1"
             d="m 0,0 11.271,-5.415 c -11.352,1.776 -30.145,0.398 -30.145,0.398 l -62.456,-0.534 16.855,1.749" /></g><g
           transform="translate(406.917,121.0564)"
           id="g889"><path
             id="path891"
             style="fill:none;stroke:#1d1d1b;stroke-width:1;stroke-linecap:butt;stroke-linejoin:miter;stroke-miterlimit:10;stroke-dasharray:none;stroke-opacity:1"
             d="m 0,0 c -11.272,1.385 -29.81,0.146 -39.113,0.489 -9.304,0.345 -24.556,2.011 -29.43,0.678 0,0 -30.541,-3.021 -44.374,-0.678 l -7.366,0.149 c 0,0 8.179,-2.802 7.429,-12.635 -0.142,-1.855 -0.414,-3.855 -1.75,-5.732" /></g><g
           transform="translate(390.334,121.7253)"
           id="g893"><path
             id="path895"
             style="fill:none;stroke:#1d1d1b;stroke-width:1;stroke-linecap:butt;stroke-linejoin:miter;stroke-miterlimit:10;stroke-dasharray:none;stroke-opacity:1"
             d="M 0,0 C 0,0 9.499,-0.18 8.323,-13.002 7.611,-20.77 -3.121,-25.007 -3.121,-25.007" /></g><g
           transform="translate(403.833,128.3523)"
           id="g897"><path
             id="path899"
             style="fill:none;stroke:#1d1d1b;stroke-width:1;stroke-linecap:butt;stroke-linejoin:miter;stroke-miterlimit:10;stroke-dasharray:none;stroke-opacity:1"
             d="m 0,0 c -7.333,4.344 -30.083,0.063 -30.083,0.063 0,0 -4.822,0.311 -8.313,1.766 0,0 -13.252,1.298 -20.938,3.298 -7.687,2 -25.011,-3.298 -25.011,-3.298 0,0 -2.821,0.048 -8.821,1.962 -3.452,1.101 -38.251,-2.087 -38.251,-2.087" /></g><g
           transform="translate(272.4165,124.9861)"
           id="g901"><path
             id="path903"
             style="fill:none;stroke:#1d1d1b;stroke-width:1;stroke-linecap:butt;stroke-linejoin:miter;stroke-miterlimit:10;stroke-dasharray:none;stroke-opacity:1"
             d="M 0,0 C 0,0 27.133,6.149 37.583,1.677 48.034,-2.796 68.289,8.529 77.436,7.342" /></g><g
           transform="translate(390.6865,302.6111)"
           id="g905"><path
             id="path907"
             style="fill:#010101;fill-opacity:1;fill-rule:nonzero;stroke:none"
             d="m 0,0 c 0.561,1.995 -0.611,2.883 -0.611,2.883 0,0 -39.951,-1.644 -54.951,-1.935 -10.411,-0.201 -15.045,0.12 -19.835,-0.376 -6.008,-0.621 -32.343,-1.082 -32.343,-1.082 0,0 -14.773,-0.017 -13.955,-10.235 0.819,-10.219 9.926,-11.82 14.686,-11.661 4.76,0.159 46.633,2.035 50.696,1.694 4.061,-0.341 57.876,3.199 57.876,3.199 0,0 -0.218,1.808 -1.372,4.708 -2.103,-1.021 -29.912,-1.808 -31.536,-2.073 -4.147,-0.677 -8.364,-0.518 -13.092,-0.843 -3.696,-0.254 -15.458,-0.19 -17.917,-0.25 -2.918,-0.071 -20.337,-1.066 -24.75,-1.417 -3.94,-0.313 -10.083,-1.264 -12.172,-0.925 -2.089,0.339 -13.744,-0.339 -13.744,-0.339 -16.295,7.901 -1.905,12.788 -1.905,12.788 0,0 32.315,2.91 34.405,2.018 2.09,-0.892 7.25,0.81 12.198,0 4.946,-0.81 10.136,0.448 17.401,0.53 3.969,0.045 49.549,1.544 50.644,2.131 z" /></g><g
           transform="translate(390.6865,302.6111)"
           id="g909"><path
             id="path911"
             style="fill:none;stroke:#010101;stroke-width:1;stroke-linecap:butt;stroke-linejoin:miter;stroke-miterlimit:10;stroke-dasharray:none;stroke-opacity:1"
             d="m 0,0 c 0.561,1.995 -0.611,2.883 -0.611,2.883 0,0 -39.951,-1.644 -54.951,-1.935 -10.411,-0.201 -15.045,0.12 -19.835,-0.376 -6.008,-0.621 -32.343,-1.082 -32.343,-1.082 0,0 -14.773,-0.017 -13.955,-10.235 0.819,-10.219 9.926,-11.82 14.686,-11.661 4.76,0.159 46.633,2.035 50.696,1.694 4.061,-0.341 57.876,3.199 57.876,3.199 0,0 -0.218,1.808 -1.372,4.708 -2.103,-1.021 -29.912,-1.808 -31.536,-2.073 -4.147,-0.677 -8.364,-0.518 -13.092,-0.843 -3.696,-0.254 -15.458,-0.19 -17.917,-0.25 -2.918,-0.071 -20.337,-1.066 -24.75,-1.417 -3.94,-0.313 -10.083,-1.264 -12.172,-0.925 -2.089,0.339 -13.744,-0.339 -13.744,-0.339 -16.295,7.901 -1.905,12.788 -1.905,12.788 0,0 32.315,2.91 34.405,2.018 2.09,-0.892 7.25,0.81 12.198,0 4.946,-0.81 10.136,0.448 17.401,0.53 3.969,0.045 49.549,1.544 50.644,2.131 z" /></g><g
           transform="translate(381.627,194.4167)"
           id="g913"><path
             id="path915"
             style="fill:#010101;fill-opacity:1;fill-rule:nonzero;stroke:#010101;stroke-width:1;stroke-linecap:butt;stroke-linejoin:miter;stroke-miterlimit:10;stroke-dasharray:none;stroke-opacity:1"
             d="m 0,0 10.081,-25.164 c 0,0 -79.06,-0.529 -86.051,-2.196 -6.99,-1.666 -17.304,0 -17.304,0 l -17.019,-0.741 2.446,25.686 h 10.679" /></g><g
           transform="translate(295.8887,188.8767)"
           id="g917"><path
             id="path919"
             style="fill:#ee760a;fill-opacity:1;fill-rule:nonzero;stroke:#010101;stroke-width:1;stroke-linecap:butt;stroke-linejoin:miter;stroke-miterlimit:10;stroke-dasharray:none;stroke-opacity:1"
             d="m 0,0 -5.252,-3.271 c 0,0 -3.55,-2.382 -2.836,-5.954 0.714,-3.572 2.516,-5.001 3.997,-5.001 H 71.927 L 85.738,7.921 c 0,0 -2.982,1.19 -2.087,4.286 0.897,3.097 2.087,3.463 2.087,3.463 l -4.207,-0.104" /></g><g
           transform="translate(275.5,289.196)"
           id="g921"><path
             id="path923"
             style="fill:none;stroke:#010101;stroke-width:1;stroke-linecap:butt;stroke-linejoin:miter;stroke-miterlimit:10;stroke-dasharray:none;stroke-opacity:1"
             d="M 0,0 C 0,0 9.715,2.218 13.758,1.909 17.801,1.601 29.129,1.313 33.181,1.632 37.232,1.95 57.139,1.516 60.373,1.275 c 3.234,-0.241 46.518,2.864 49.12,3.704" /></g><g
           transform="translate(390.0166,291.5271)"
           id="g925"><path
             id="path927"
             style="fill:none;stroke:#010101;stroke-width:1;stroke-linecap:butt;stroke-linejoin:miter;stroke-miterlimit:10;stroke-dasharray:none;stroke-opacity:1"
             d="m 0,0 c 0,0 -6.044,-1.659 -10.249,-1.533 -4.205,0.126 -15.972,0.018 -20.168,-0.358 -4.437,-0.396 -24.674,-0.627 -28.236,-0.525 -3.365,0.097 -47.757,-2.469 -50.433,-3.218" /></g><g
           transform="translate(355.1943,265.6198)"
           id="g929"><path
             id="path931"
             style="fill:none;stroke:#010101;stroke-width:1;stroke-linecap:butt;stroke-linejoin:miter;stroke-miterlimit:10;stroke-dasharray:none;stroke-opacity:1"
             d="M 0,0 -87.159,3.81" /></g><g
           transform="translate(357.416,244.1872)"
           id="g933"><path
             id="path935"
             style="fill:none;stroke:#010101;stroke-width:1;stroke-linecap:butt;stroke-linejoin:miter;stroke-miterlimit:10;stroke-dasharray:none;stroke-opacity:1"
             d="M 0,0 13.271,11.52" /></g><g
           transform="translate(389.8535,282.6042)"
           id="g937"><path
             id="path939"
             style="fill:none;stroke:#010101;stroke-width:1;stroke-linecap:butt;stroke-linejoin:miter;stroke-miterlimit:10;stroke-dasharray:none;stroke-opacity:1"
             d="M 0,0 C -0.137,-4.157 2.648,-7.776 2.648,-7.776 L -14.656,-22.983" /></g><g
           transform="translate(385.9932,278.4792)"
           id="g941"><path
             id="path943"
             style="fill:none;stroke:#010101;stroke-width:1;stroke-linecap:butt;stroke-linejoin:miter;stroke-miterlimit:10;stroke-dasharray:none;stroke-opacity:1"
             d="M 0,0 -11.431,-12.859" /></g><g
           transform="translate(362.6553,266.572)"
           id="g945"><path
             id="path947"
             style="fill:none;stroke:#010101;stroke-width:1;stroke-linecap:butt;stroke-linejoin:miter;stroke-miterlimit:10;stroke-dasharray:none;stroke-opacity:1"
             d="M 0,0 C 0,0 14.447,13.336 18.258,14.447" /></g><g
           transform="translate(297.0859,247.0163)"
           id="g949"><path
             id="path951"
             style="fill:none;stroke:#010101;stroke-width:1;stroke-linecap:butt;stroke-linejoin:miter;stroke-miterlimit:10;stroke-dasharray:none;stroke-opacity:1"
             d="M 0,0 -15.715,-17.355" /></g><g
           transform="translate(386.3604,269.4294)"
           id="g953"><path
             id="path955"
             style="fill:none;stroke:#010101;stroke-width:1;stroke-linecap:butt;stroke-linejoin:miter;stroke-miterlimit:10;stroke-dasharray:none;stroke-opacity:1"
             d="M 0,0 12.297,-0.238 -8.225,-22.4" /></g><g
           transform="translate(398.2373,253.5788)"
           id="g957"><path
             id="path959"
             style="fill:none;stroke:#010101;stroke-width:1;stroke-linecap:butt;stroke-linejoin:miter;stroke-miterlimit:10;stroke-dasharray:none;stroke-opacity:1"
             d="M 0,0 -29.114,-32.153" /></g><g
           transform="translate(284.7051,205.3708)"
           id="g961"><path
             id="path963"
             style="fill:#ee760a;fill-opacity:1;fill-rule:nonzero;stroke:#010101;stroke-width:1;stroke-linecap:butt;stroke-linejoin:miter;stroke-miterlimit:10;stroke-dasharray:none;stroke-opacity:1"
             d="m 0,0 c 0,0 -6.509,-1.826 -5.239,-8.018 1.27,-6.191 12.859,-8.096 18.416,-8.731 5.556,-0.635 16.987,1.905 19.527,1.111 2.54,-0.794 14.13,-2.428 17.622,-1.215 3.493,1.215 30.164,2.327 32.229,1.85 L 94.129,1.032 v 14.606" /></g><g
           transform="translate(284.7051,221.8025)"
           id="g965"><path
             id="path967"
             style="fill:#ee760a;fill-opacity:1;fill-rule:nonzero;stroke:#010101;stroke-width:1;stroke-linecap:butt;stroke-linejoin:miter;stroke-miterlimit:10;stroke-dasharray:none;stroke-opacity:1"
             d="m 0,0 c 0,0 -1.111,-2.54 -0.635,-3.97 0.476,-1.428 -1.112,-4.127 -1.112,-4.127 0,0 0,-6.668 1.747,-8.335 0,0 13.495,-3.572 23.813,-2.778 10.32,0.794 16.114,-1.024 18.536,-0.115 2.421,0.909 10.676,0.156 11.788,-0.262 1.111,-0.417 25.084,1.58 26.672,2.487 1.587,0.907 -3.05,15.103 -0.636,17.336" /></g><g
           transform="translate(367.8799,233.4138)"
           id="g969"><path
             id="path971"
             style="fill:#ee760a;fill-opacity:1;fill-rule:nonzero;stroke:#010101;stroke-width:1;stroke-linecap:butt;stroke-linejoin:miter;stroke-miterlimit:10;stroke-dasharray:none;stroke-opacity:1"
             d="m 0,0 c 0,0 -9.353,2.801 -23.164,0 -13.813,-2.801 -26.195,-5.896 -36.197,-5.42 -10.002,0.477 -23.219,0.833 -23.219,0.833 0,0 -5.834,0.119 -5.834,-2.5 0,-2.619 1.786,-4.763 5.239,-4.524 3.453,0.238 9.64,-1.192 12.381,-1.786 2.741,-0.596 20.721,-1.31 23.221,0 2.5,1.309 24.568,3.691 30.124,3.055 5.556,-0.635 19.052,-1.269 19.052,-1.269" /></g><g
           transform="translate(362.6553,215.3728)"
           id="g973"><path
             id="path975"
             style="fill:none;stroke:#010101;stroke-width:1;stroke-linecap:butt;stroke-linejoin:miter;stroke-miterlimit:10;stroke-dasharray:none;stroke-opacity:1"
             d="m 0,0 c 0,0 -15.876,0.952 -20.003,0.714 -4.128,-0.238 -14.845,-4.048 -22.465,-3.334 -7.62,0.715 -25.481,2.807 -29.053,1.641 -3.572,-1.165 13.098,-7.118 16.67,-6.404 3.572,0.715 24.29,3.789 30.482,4.038 6.191,0.249 20.956,-1.775 22.623,-4.097 1.667,-2.322 1.429,2.56 -21.909,0 l -23.337,-2.56" /></g><g
           transform="translate(379.54,223.3445)"
           id="g977"><path
             id="path979"
             style="fill:none;stroke:#010101;stroke-width:1;stroke-linecap:butt;stroke-linejoin:miter;stroke-miterlimit:10;stroke-dasharray:none;stroke-opacity:1"
             d="m 0,0 -14.026,-18.642 c 0,0 -4.764,-11.16 1.746,-14.335" /></g><g
           transform="translate(365.8525,197.6706)"
           id="g981"><path
             id="path983"
             style="fill:none;stroke:#010101;stroke-width:1;stroke-linecap:butt;stroke-linejoin:miter;stroke-miterlimit:10;stroke-dasharray:none;stroke-opacity:1"
             d="M 0,0 C 0.454,1.111 8.869,16.193 10.298,17.464" /></g><g
           transform="translate(377.4199,209.7361)"
           id="g985"><path
             id="path987"
             style="fill:none;stroke:#010101;stroke-width:1;stroke-linecap:butt;stroke-linejoin:miter;stroke-miterlimit:10;stroke-dasharray:none;stroke-opacity:1"
             d="M 0,0 C 0,0 -5.397,-10.319 -7.937,-12.065" /></g><g
           transform="translate(342.6523,228.7878)"
           id="g989"><path
             id="path991"
             style="fill:none;stroke:#010101;stroke-width:1;stroke-linecap:butt;stroke-linejoin:miter;stroke-miterlimit:10;stroke-dasharray:none;stroke-opacity:1"
             d="M 0,0 C 0,0 2.99,1.429 5.226,0.873 7.461,0.317 17.305,-0.537 18.257,1.001" /></g><g
           transform="translate(289.2285,225.9294)"
           id="g993"><path
             id="path995"
             style="fill:none;stroke:#010101;stroke-width:1;stroke-linecap:butt;stroke-linejoin:miter;stroke-miterlimit:10;stroke-dasharray:none;stroke-opacity:1"
             d="m 0,0 c 0,0 7.383,-1.587 9.606,-0.952 2.223,0.635 9.367,0.317 11.272,-1.746 1.905,-2.065 13.811,2.222 16.034,2.698 2.223,0.477 14.924,2.396 16.512,1.039 1.587,-1.356 5.397,-3.098 6.985,-1.909 1.587,1.188 17.086,0.871 19.202,0" /></g><g
           transform="translate(391.708,169.2527)"
           id="g997"><path
             id="path999"
             style="fill:none;stroke:#010101;stroke-width:1;stroke-linecap:butt;stroke-linejoin:miter;stroke-miterlimit:10;stroke-dasharray:none;stroke-opacity:1"
             d="m 0,0 c -2.501,-9.745 -2.173,-18.896 3.176,-26.988 0,0 -27.783,-2.382 -36.357,-2.223 -8.572,0.158 -24.29,-0.953 -34.926,-2.382 -10.637,-1.428 -54.287,-3.974 -56.351,-2.546 0,0 -0.75,18.193 0.416,26.11" /></g><g
           transform="translate(324.4736,142.4226)"
           id="g1001"><path
             id="path1003"
             style="fill:none;stroke:#010101;stroke-width:1;stroke-linecap:butt;stroke-linejoin:miter;stroke-miterlimit:10;stroke-dasharray:none;stroke-opacity:1"
             d="M 0,0 C 0,0 14.209,4.287 22.306,2.857 30.402,1.429 29.133,2.382 40.404,2.223 51.677,2.064 66.415,4.9 68.188,4.287" /></g><g
           transform="translate(328.0459,149.404)"
           id="g1005"><path
             id="path1007"
             style="fill:none;stroke:#010101;stroke-width:1;stroke-linecap:butt;stroke-linejoin:miter;stroke-miterlimit:10;stroke-dasharray:none;stroke-opacity:1"
             d="m 0,0 c 0,0 3.493,3.017 7.621,1.27 4.127,-1.747 16.034,-0.182 20.003,0.543 3.969,0.727 3.811,1.997 12.542,0.727 8.731,-1.27 14.13,1.586 14.13,1.586" /></g><g
           transform="translate(307.8838,156.2654)"
           id="g1009"><path
             id="path1011"
             style="fill:none;stroke:#010101;stroke-width:1;stroke-linecap:butt;stroke-linejoin:miter;stroke-miterlimit:10;stroke-dasharray:none;stroke-opacity:1"
             d="M 0,0 C 1.271,-0.477 31.275,1.746 39.055,1.429 46.834,1.111 56.519,-0.452 60.17,-0.067 63.821,0.317 75.41,1.332 76.681,0.666" /></g><g
           transform="translate(300.4062,162.0905)"
           id="g1013"><path
             id="path1015"
             style="fill:none;stroke:#010101;stroke-width:1;stroke-linecap:butt;stroke-linejoin:miter;stroke-miterlimit:10;stroke-dasharray:none;stroke-opacity:1"
             d="M 0,0 C 0,0 16.019,2.381 19.681,1.111 23.342,-0.159 40.123,-0.794 43.327,0 46.531,0.794 61.024,1.539 66.211,1.484 71.398,1.429 85.738,2.181 86.807,1.487" /></g><g
           transform="translate(367.2598,190.3679)"
           id="g1017"><path
             id="path1019"
             style="fill:none;stroke:#010101;stroke-width:1;stroke-linecap:butt;stroke-linejoin:miter;stroke-miterlimit:10;stroke-dasharray:none;stroke-opacity:1"
             d="m 0,0 -2.382,-2.284 c 0,0 -5.636,-9.385 2.938,-13.433" /></g><g
           transform="translate(365.8525,183.9382)"
           id="g1021"><path
             id="path1023"
             style="fill:none;stroke:#010101;stroke-width:1;stroke-linecap:butt;stroke-linejoin:miter;stroke-miterlimit:10;stroke-dasharray:none;stroke-opacity:1"
             d="M 0,0 10.298,15.717" /></g><g
           transform="translate(377.4199,195.3689)"
           id="g1025"><path
             id="path1027"
             style="fill:none;stroke:#010101;stroke-width:1;stroke-linecap:butt;stroke-linejoin:miter;stroke-miterlimit:10;stroke-dasharray:none;stroke-opacity:1"
             d="m 0,0 c 0,0 -1.667,-4.567 -3.969,-7.285 -2.302,-2.717 -5.874,-8.432 -5.635,-9.385" /></g><g
           transform="translate(271.1665,119.7487)"
           id="g1029"><path
             id="path1031"
             style="fill:none;stroke:#010101;stroke-width:1;stroke-linecap:butt;stroke-linejoin:miter;stroke-miterlimit:10;stroke-dasharray:none;stroke-opacity:1"
             d="m 0,0 c 0,0 31.637,5.369 39.734,3.227 8.097,-2.144 28.855,6.329 37.599,5.377 8.745,-0.954 24.269,-2.252 26.651,-3.712 0,0 10.307,-1.125 14.703,-0.125 4.396,1 13.885,-0.75 13.885,-0.75" /></g><g
           transform="translate(314,139.8904)"
           id="g1033"><path
             id="path1035"
             style="fill:none;stroke:#010101;stroke-width:1;stroke-linecap:butt;stroke-linejoin:miter;stroke-miterlimit:10;stroke-dasharray:none;stroke-opacity:1"
             d="M 0,0 C -8.022,-1 -33.756,0 -33.756,0 H -45.167" /></g><g
           transform="translate(361.8613,259.0739)"
           id="g1037"><path
             id="path1039"
             style="fill:#010101;fill-opacity:1;fill-rule:nonzero;stroke:#010101;stroke-width:1;stroke-linecap:butt;stroke-linejoin:miter;stroke-miterlimit:10;stroke-dasharray:none;stroke-opacity:1"
             d="m 0,0 c 0,0 12.264,-0.863 12.264,-10.708 0,-9.845 -3.455,-11.745 -4.319,-13.645 -0.863,-1.9 -4.317,-8.463 3.283,-11.399 7.599,-2.936 11.053,-5.182 11.053,-5.182 l -2.418,6.909 9.154,2.245 c 0,0 -8.84,0.691 -10.551,2.591 -1.712,1.9 -4.648,4.664 -1.194,9.845 3.455,5.181 3.282,12.953 -0.518,17.099 -3.8,4.145 -5.872,7.081 -12.263,6.563" /></g><g
           transform="translate(358.8457,257.0466)"
           id="g1041"><path
             id="path1043"
             style="fill:none;stroke:#010101;stroke-width:1;stroke-linecap:butt;stroke-linejoin:miter;stroke-miterlimit:10;stroke-dasharray:none;stroke-opacity:1"
             d="m 0,0 c 0,0 7.461,5.715 10.001,9.208 2.541,3.493 7.751,9.685 9.987,9.843" /></g><g
           transform="translate(394.25,264.4314)"
           id="g1045"><path
             id="path1047"
             style="fill:none;stroke:#010101;stroke-width:1;stroke-linecap:butt;stroke-linejoin:miter;stroke-miterlimit:10;stroke-dasharray:none;stroke-opacity:1"
             d="m 0,0 5.917,-0.358 c 0,0 -2.334,-2.683 -3,-4.453 -0.667,-1.77 -8,-7.897 -10.5,-9.673 -2.5,-1.777 -7.127,-10.224 -7.127,-10.224" /></g><g
           transform="translate(398.2373,261.5544)"
           id="g1049"><path
             id="path1051"
             style="fill:none;stroke:#010101;stroke-width:1;stroke-linecap:butt;stroke-linejoin:miter;stroke-miterlimit:10;stroke-dasharray:none;stroke-opacity:1"
             d="m 0,0 5.596,-1.934 c 0,0 -7.833,-4.852 -8.833,-6.042 -1,-1.188 -4.267,-5.602 -6.467,-6.562 -2.2,-0.96 -4.684,-5.46 -4.684,-5.46" /></g><g
           transform="translate(110.5,135.778)"
           id="g1053"><path
             id="path1055"
             style="fill:#60605e;fill-opacity:1;fill-rule:nonzero;stroke:none"
             d="m 0,0 c 0,-33.243 26.949,-60.191 60.192,-60.191 33.243,0 60.192,26.948 60.192,60.191 0,33.243 -26.949,60.191 -60.192,60.191 C 26.949,60.191 0,33.243 0,0" /></g><g
           transform="translate(269.3335,147.197)"
           id="g1057"><path
             id="path1059"
             style="fill:none;stroke:#010101;stroke-width:1;stroke-linecap:butt;stroke-linejoin:miter;stroke-miterlimit:10;stroke-dasharray:none;stroke-opacity:1"
             d="m 0,0 16.326,-2.275 c 0,0 10.961,-2.093 14.747,-0.313" /></g><g
           transform="translate(299.1436,236.1267)"
           id="g1061"><path
             id="path1063"
             style="fill:none;stroke:#010101;stroke-width:1;stroke-linecap:butt;stroke-linejoin:miter;stroke-miterlimit:10;stroke-dasharray:none;stroke-opacity:1"
             d="M 0,0 C 2.089,1.147 4.38,1.926 6.734,2.289 6.599,1.611 6.462,0.935 6.326,0.257 c 1.577,-0.904 3.605,1.614 5.175,0.699 0.395,-0.229 0.657,-0.643 1.054,-0.87 0.896,-0.516 1.988,0.092 2.905,0.567 2.364,1.226 5.153,1.61 7.761,1.069" /></g><g
           transform="translate(319.8096,259.7487)"
           id="g1065"><path
             id="path1067"
             style="fill:none;stroke:#010101;stroke-width:1;stroke-linecap:butt;stroke-linejoin:miter;stroke-miterlimit:10;stroke-dasharray:none;stroke-opacity:1"
             d="m 0,0 c -0.364,-1.943 -0.667,-4.161 0.553,-5.718 1.12,-1.431 3.224,-1.77 4.979,-1.296 1.755,0.475 3.247,1.607 4.689,2.714 0.836,0.642 1.719,1.353 2.007,2.365 1.967,-3.419 6.889,-3.388 10.725,-2.466 1.251,0.3 2.761,0.986 2.736,2.272 -0.028,1.434 -2.266,1.918 -3.244,0.869 -0.976,-1.049 -0.802,-2.762 -0.112,-4.019 1.291,-2.35 4.226,-3.663 6.838,-3.061" /></g><g
           transform="translate(403.833,135.1052)"
           id="g1069"><path
             id="path1071"
             style="fill:none;stroke:#010101;stroke-width:1;stroke-linecap:butt;stroke-linejoin:miter;stroke-miterlimit:10;stroke-dasharray:none;stroke-opacity:1"
             d="M 0,0 C 0,0 -43.833,0 -56.935,2.217" /></g><g
           transform="translate(389.874,118.4939)"
           id="g1073"><path
             id="path1075"
             style="fill:none;stroke:#010101;stroke-width:1;stroke-linecap:butt;stroke-linejoin:miter;stroke-miterlimit:10;stroke-dasharray:none;stroke-opacity:1"
             d="m 0,0 c 0,0 -47.077,-1.662 -51.451,-1.725 -4.374,-0.063 -34.836,1.916 -39.3,1.434" /></g><g
           transform="translate(299.1436,104.2585)"
           id="g1077"><path
             id="path1079"
             style="fill:none;stroke:#010101;stroke-width:1;stroke-linecap:butt;stroke-linejoin:miter;stroke-miterlimit:10;stroke-dasharray:none;stroke-opacity:1"
             d="M 0,0 C 0,0 45.102,0.083 49.289,0 53.477,-0.083 82.563,-3.083 86.85,-2.75" /></g><g
           transform="translate(391.708,105.5564)"
           id="g1081"><path
             id="path1083"
             style="fill:none;stroke:#010101;stroke-width:1;stroke-linecap:butt;stroke-linejoin:miter;stroke-miterlimit:10;stroke-dasharray:none;stroke-opacity:1"
             d="m 0,0 c -21.47,0.503 -19.628,0.052 -27.876,2.167 -6.499,1.667 -50.669,0.667 -57.584,0" /></g><g
           transform="translate(392.1348,112.6247)"
           id="g1085"><path
             id="path1087"
             style="fill:none;stroke:#010101;stroke-width:1;stroke-linecap:butt;stroke-linejoin:miter;stroke-miterlimit:10;stroke-dasharray:none;stroke-opacity:1"
             d="m 0,0 c 0,0 -15.466,-0.376 -22.134,0 -6.722,0.379 -26.572,0.565 -36.335,0.376 -9.666,-0.189 -27.703,-0.587 -34.06,-0.234" /></g><g
           transform="translate(395.75,138.8904)"
           id="g1089"><path
             id="path1091"
             style="fill:none;stroke:#010101;stroke-width:1;stroke-linecap:butt;stroke-linejoin:miter;stroke-miterlimit:10;stroke-dasharray:none;stroke-opacity:1"
             d="M 0,0 C 0,0 18.53,10.517 20.583,-3.177 24.555,-29.668 2.463,-18.445 2.302,-17.562" /></g><g
           transform="translate(285.8281,135.0193)"
           id="g1093"><path
             id="path1095"
             style="fill:#010101;fill-opacity:1;fill-rule:nonzero;stroke:none"
             d="m 0,0 c 0,0 -18.328,-3.294 -19.078,-3.878 -0.75,-0.585 0.5,3.973 0.5,3.973 z" /></g><g
           transform="translate(285.8281,135.0193)"
           id="g1097"><path
             id="path1099"
             style="fill:none;stroke:#010101;stroke-width:1;stroke-linecap:butt;stroke-linejoin:miter;stroke-miterlimit:10;stroke-dasharray:none;stroke-opacity:1"
             d="m 0,0 c 0,0 -18.328,-3.294 -19.078,-3.878 -0.75,-0.585 0.5,3.973 0.5,3.973 z" /></g><g
           transform="translate(278.1665,293.2195)"
           id="g1101"><path
             id="path1103"
             style="fill:none;stroke:#010101;stroke-width:1;stroke-linecap:butt;stroke-linejoin:miter;stroke-miterlimit:10;stroke-dasharray:none;stroke-opacity:1"
             d="m 0,0 c 0.729,0.208 22.408,2.42 25.877,1.61 3.47,-0.809 23.539,0.284 25.544,0.487 2.006,0.203 31.931,0.893 34.945,0.63 3.013,-0.264 25.022,1.574 25.022,1.574" /></g><g
           transform="translate(174.5,298.7649)"
           id="g1105"><path
             id="path1107"
             style="fill:#ee760a;fill-opacity:1;fill-rule:nonzero;stroke:none"
             d="M 0,0 -4.833,-8.708 -36.626,17.75 0,43.625 -30.781,62.922 -69.5,53.688 l 1,-35.938 -8.958,-32.5 -6.202,-59.782 -0.342,-11.193 4.252,-9.15 c 0,0 18.25,2.333 6.5,-23.917 l 14.083,3.5 10.75,1.862 25.5,3.305 8.917,2.875 52.335,45.063 c 0,0 -4.058,-3.361 1.489,4.084 6.417,8.611 7.422,9.389 9.523,11.103 4,3.264 6.903,-0.25 6.903,-0.25 l 4.125,9.313 L 29.343,-21.542 22,-23.75 12.203,-8.857 3.694,-2.313" /></g><g
           transform="translate(116,354.8899)"
           id="g1109"><path
             id="path1111"
             style="fill:#ee760a;fill-opacity:1;fill-rule:nonzero;stroke:none"
             d="M 0,0 -11,-16.031 V -28.375" /></g><g
           transform="translate(182.3437,348.0617)"
           id="g1113"><path
             id="path1115"
             style="fill:#ee760a;fill-opacity:1;fill-rule:nonzero;stroke:none"
             d="m 0,0 -12.813,10 -4.249,15.187 -2.875,1.25 -18.688,-12.812 8.5,-11.938 L -10.75,-8.938 -2.438,-3 Z" /></g><g
           transform="translate(269.3335,111.3904)"
           id="g1117"><path
             id="path1119"
             style="fill:#ee760a;fill-opacity:1;fill-rule:nonzero;stroke:#1d1d1b;stroke-width:1;stroke-linecap:butt;stroke-linejoin:miter;stroke-miterlimit:10;stroke-dasharray:none;stroke-opacity:1"
             d="m 0,0 c 0,0 -8.833,4.333 -9,14 -0.167,9.666 0,15.833 0.5,19.666 0.5,3.834 0.833,7.834 2.167,11.5 1.333,3.667 3.291,14.563 1.208,19.98 l 5.125,3.02 -18.333,31.5 -5.5,-1.166 c 0,-0.5 -3.834,-16.834 -6.167,-22.834 -2.333,-6 1.667,-29 4,-35 2.333,-6 3.167,-30.5 1.333,-37 -1.833,-6.5 -4.42,-16.949 2.58,-17.116" /></g><g
           transform="translate(171.6665,349.3899)"
           id="g1121"><path
             id="path1123"
             style="fill:#ee760a;fill-opacity:1;fill-rule:nonzero;stroke:#1d1d1b;stroke-width:1;stroke-linecap:butt;stroke-linejoin:miter;stroke-miterlimit:10;stroke-dasharray:none;stroke-opacity:1"
             d="m 0,0 c 0,0 2.333,1.167 4.333,3.333 2,2.167 0.167,5.334 0.167,5.334 4.5,0.833 4,3.833 2.833,4.5 -1.166,0.666 -4.333,1.5 -5.5,4 -1.166,2.5 -9,6.833 -9,6.833" /></g><g
           transform="translate(152.75,389.8899)"
           id="g1125"><path
             id="path1127"
             style="fill:#ee760a;fill-opacity:1;fill-rule:nonzero;stroke:none"
             d="M 0,0 C 0,0 11,0.5 14.5,3 18,5.5 25,8.75 27.5,9.75 30,10.75 38.5,16 39,20 39.5,24 42.75,5.5 19.75,-9.75 -3.25,-25 -6,-37.75 -30,-39.75 c -24,-2 -38.75,0.25 -40.5,2 -1.75,1.75 1,4.25 13.75,3.5 12.75,-0.75 19.5,10.5 19.5,10.5 0,0 -6.583,7.667 -0.833,13.083 5.75,5.417 10.75,4.417 10.25,7.834 -0.5,3.416 -1.834,5.166 -0.084,6.083 1.75,0.917 3.667,-3.917 5.5,-4.167 1.834,-0.25 7.41,1.078 9.834,2.25 C -7.417,3.833 -1.25,2.333 0,0" /></g><g
           transform="translate(152.75,389.8899)"
           id="g1129"><path
             id="path1131"
             style="fill:none;stroke:#1d1d1b;stroke-width:1;stroke-linecap:butt;stroke-linejoin:miter;stroke-miterlimit:10;stroke-dasharray:none;stroke-opacity:1"
             d="M 0,0 C 0,0 11,0.5 14.5,3 18,5.5 25,8.75 27.5,9.75 30,10.75 38.5,16 39,20 39.5,24 42.75,5.5 19.75,-9.75 -3.25,-25 -6,-37.75 -30,-39.75 c -24,-2 -38.75,0.25 -40.5,2 -1.75,1.75 1,4.25 13.75,3.5 12.75,-0.75 19.5,10.5 19.5,10.5 0,0 -6.583,7.667 -0.833,13.083 5.75,5.417 10.75,4.417 10.25,7.834 -0.5,3.416 -1.834,5.166 -0.084,6.083 1.75,0.917 3.667,-3.917 5.5,-4.167 1.834,-0.25 7.41,1.078 9.834,2.25 C -7.417,3.833 -1.25,2.333 0,0 Z" /></g><g
           transform="translate(153.1665,387.8899)"
           id="g1133"><path
             id="path1135"
             style="fill:#ee760a;fill-opacity:1;fill-rule:nonzero;stroke:#1d1d1b;stroke-width:1;stroke-linecap:butt;stroke-linejoin:miter;stroke-miterlimit:10;stroke-dasharray:none;stroke-opacity:1"
             d="M 0,0 C 0,0 -0.333,-16.25 -13.167,-21.083 -26,-25.917 -35.917,-23 -35.917,-23" /></g><g
           transform="translate(140.5625,354.8274)"
           id="g1137"><path
             id="path1139"
             style="fill:#010101;fill-opacity:1;fill-rule:nonzero;stroke:none"
             d="m 0,0 c 0,0 5.125,-3.25 5,-6.312 -0.125,-3.063 2.312,-0.375 6.438,-1 4.125,-0.625 3.375,-7.876 3.375,-7.876 0,0 2.999,-3.749 4.624,-2.749 1.625,1 4.5,1.25 4.5,1.25 0,0 39.376,2.124 35.501,2.874 C 55.563,-13.063 40.75,-6.5 40.75,-6.5 l -2.437,1.813 c 0,0 -1.438,-2.125 -4.125,-4.188 C 31.5,-10.938 25.6,-7.603 22.437,-5.812 16.771,-2.604 10.188,7.187 10.188,7.187 Z" /></g><g
           transform="translate(140.5625,354.8274)"
           id="g1141"><path
             id="path1143"
             style="fill:none;stroke:#1d1d1b;stroke-width:1;stroke-linecap:butt;stroke-linejoin:miter;stroke-miterlimit:10;stroke-dasharray:none;stroke-opacity:1"
             d="m 0,0 c 0,0 5.125,-3.25 5,-6.312 -0.125,-3.063 2.312,-0.375 6.438,-1 4.125,-0.625 3.375,-7.876 3.375,-7.876 0,0 2.999,-3.749 4.624,-2.749 1.625,1 4.5,1.25 4.5,1.25 0,0 39.376,2.124 35.501,2.874 C 55.563,-13.063 40.75,-6.5 40.75,-6.5 l -2.437,1.813 c 0,0 -1.438,-2.125 -4.125,-4.188 C 31.5,-10.938 25.6,-7.603 22.437,-5.812 16.771,-2.604 10.188,7.187 10.188,7.187 Z" /></g><g
           transform="translate(157,361.1399)"
           id="g1145"><path
             id="path1147"
             style="fill:#010101;fill-opacity:1;fill-rule:nonzero;stroke:none"
             d="m 0,0 c 0,0 8.25,-0.583 10.583,3.333 0,0 -2.354,2.563 -5.125,1.584 C 2.688,3.938 0,0 0,0" /></g><g
           transform="translate(157,361.1399)"
           id="g1149"><path
             id="path1151"
             style="fill:none;stroke:#1d1d1b;stroke-width:1;stroke-linecap:butt;stroke-linejoin:miter;stroke-miterlimit:10;stroke-dasharray:none;stroke-opacity:1"
             d="m 0,0 c 0,0 8.25,-0.583 10.583,3.333 0,0 -2.354,2.563 -5.125,1.584 C 2.688,3.938 0,0 0,0 Z" /></g><g
           transform="translate(160,336.8899)"
           id="g1153"><path
             id="path1155"
             style="fill:#ee760a;fill-opacity:1;fill-rule:nonzero;stroke:#1d1d1b;stroke-width:1;stroke-linecap:butt;stroke-linejoin:miter;stroke-miterlimit:10;stroke-dasharray:none;stroke-opacity:1"
             d="m 0,0 c 0,0 -7.25,-4.917 -7.25,-8.583 0,-3.667 -0.833,-6.167 0.167,-6.5 1,-0.334 2.583,0.5 2.833,1.5 0.25,1 -0.583,2.083 -0.167,3.333 0.417,1.25 1.834,4.083 1.834,4.083" /></g><g
           transform="translate(161.1665,330.1399)"
           id="g1157"><path
             id="path1159"
             style="fill:none;stroke:#1d1d1b;stroke-width:1;stroke-linecap:butt;stroke-linejoin:miter;stroke-miterlimit:10;stroke-dasharray:none;stroke-opacity:1"
             d="m 0,0 c 0,0 -2.75,-3.5 -2.75,-5.167 0,-1.666 0.667,-2.833 -0.667,-3.416 -1.333,-0.584 -2.5,1.166 -2.5,1.166" /></g><g
           transform="translate(165.6665,331.1399)"
           id="g1161"><path
             id="path1163"
             style="fill:none;stroke:#1d1d1b;stroke-width:1;stroke-linecap:butt;stroke-linejoin:miter;stroke-miterlimit:10;stroke-dasharray:none;stroke-opacity:1"
             d="m 0,0 c 0,0 -1.833,-1.583 -2.5,-4.5 -0.667,-2.917 -1.25,-4.583 -2.667,-4.167 -1.416,0.417 -2.083,2.5 -2.083,2.5" /></g><g
           transform="translate(185.0835,320.8069)"
           id="g1165"><path
             id="path1167"
             style="fill:#ee760a;fill-opacity:1;fill-rule:nonzero;stroke:#1d1d1b;stroke-width:1;stroke-linecap:butt;stroke-linejoin:miter;stroke-miterlimit:10;stroke-dasharray:none;stroke-opacity:1"
             d="M 0,0 C 0,0 3,-6.5 0.833,-8.583" /></g><g
           transform="translate(176.25,338.8586)"
           id="g1169"><path
             id="path1171"
             style="fill:#ee760a;fill-opacity:1;fill-rule:nonzero;stroke:#1d1d1b;stroke-width:1;stroke-linecap:butt;stroke-linejoin:miter;stroke-miterlimit:10;stroke-dasharray:none;stroke-opacity:1"
             d="m 0,0 c 2.719,-0.094 8.5,-1.969 9.25,-3.094 0.75,-1.125 3.375,-3 4.625,-4 1.25,-1 4.875,-3.5 3.25,-12 -1.625,-8.5 -5.625,-24.874 -5.375,-27.624" /></g><g
           transform="translate(110.1563,245.4997)"
           id="g1173"><path
             id="path1175"
             style="fill:#ee760a;fill-opacity:1;fill-rule:nonzero;stroke:#1d1d1b;stroke-width:1;stroke-linecap:butt;stroke-linejoin:miter;stroke-miterlimit:10;stroke-dasharray:none;stroke-opacity:1"
             d="m 0,0 c 0,3.25 4.594,19.141 13.094,25.641 8.5,6.5 19.583,22.416 19.583,22.416 0.833,-1.333 19.333,-14.666 24.333,-16.833 5,-2.167 8.667,-5.5 11.334,-7.5 2.666,-2 22.333,-8.333 22.666,-3.167 0.334,5.167 0.667,3.834 -5.833,16.667 -6.5,12.833 -17.5,15.333 -26.333,17.333 -8.834,2 -7.334,4.833 -16,15.333 -8.667,10.5 -19.646,9.167 -21.167,8.834 C 20.156,78.39 17.073,77.191 14.927,75.265 12.094,72.724 5.844,73.89 2.094,73.89 c -3.75,0 -10.75,1 -13.25,7.25 -2.5,6.25 7.192,6.252 7.192,6.252" /></g><g
           transform="translate(183.875,266.5154)"
           id="g1177"><path
             id="path1179"
             style="fill:#ee760a;fill-opacity:1;fill-rule:nonzero;stroke:#1d1d1b;stroke-width:1;stroke-linecap:butt;stroke-linejoin:miter;stroke-miterlimit:10;stroke-dasharray:none;stroke-opacity:1"
             d="m 0,0 c 0,0 -0.25,-7.125 -3.25,-11.125 -3,-4 -4,-6.875 -5.875,-8.5 -1.875,-1.625 -7.279,-5.926 -9.375,0.75 -1.583,5.041 -0.416,7.573 -0.416,7.573" /></g><g
           transform="translate(160.5,251.7654)"
           id="g1181"><path
             id="path1183"
             style="fill:#ee760a;fill-opacity:1;fill-rule:nonzero;stroke:#1d1d1b;stroke-width:1;stroke-linecap:butt;stroke-linejoin:miter;stroke-miterlimit:10;stroke-dasharray:none;stroke-opacity:1"
             d="m 0,0 c 0,0 4.875,1.125 5,5.75 0.125,4.625 0.559,5.989 1.25,7.125 C 8.583,16.708 3.917,23.208 4,26.708" /></g><g
           transform="translate(155.875,218.7654)"
           id="g1185"><path
             id="path1187"
             style="fill:#ee760a;fill-opacity:1;fill-rule:nonzero;stroke:#1d1d1b;stroke-width:1;stroke-linecap:butt;stroke-linejoin:miter;stroke-miterlimit:10;stroke-dasharray:none;stroke-opacity:1"
             d="m 0,0 c 0,0 3.625,-1.125 8.625,10.875 5,12 2.25,10.25 -3,19.25 -5.25,9 -6,35.125 -6,35.125" /></g><g
           transform="translate(149.75,287.8904)"
           id="g1189"><path
             id="path1191"
             style="fill:#ee760a;fill-opacity:1;fill-rule:nonzero;stroke:#1d1d1b;stroke-width:1;stroke-linecap:butt;stroke-linejoin:miter;stroke-miterlimit:10;stroke-dasharray:none;stroke-opacity:1"
             d="M 0,0 C 0,0 -1.25,-26.5 1.5,-39.5 4.25,-52.5 9.5,-86 6,-99.25 2.5,-112.5 -7,-139.75 -7.75,-145 c 0,0 4.75,20.75 4,35 -0.75,14.25 -4,35 -4.5,41.75 -0.5,6.75 -8,58.75 -9,60.25" /></g><g
           transform="translate(138.75,288.3904)"
           id="g1193"><path
             id="path1195"
             style="fill:#ee760a;fill-opacity:1;fill-rule:nonzero;stroke:#1d1d1b;stroke-width:1;stroke-linecap:butt;stroke-linejoin:miter;stroke-miterlimit:10;stroke-dasharray:none;stroke-opacity:1"
             d="M 0,0 C 0,0 1.75,-4 1.5,-8.5 1.25,-13 4.25,-37.25 6,-41.75 c 1.75,-4.5 1.75,-10.5 2.25,-13.5 0.5,-3 3.25,-34.25 5,-36.75" /></g><g
           transform="translate(124.7983,241.3904)"
           id="g1197"><path
             id="path1199"
             style="fill:#ee760a;fill-opacity:1;fill-rule:nonzero;stroke:#1d1d1b;stroke-width:1;stroke-linecap:butt;stroke-linejoin:miter;stroke-miterlimit:10;stroke-dasharray:none;stroke-opacity:1"
             d="m 0,0 c 0,0 5.493,-4.476 8.544,-5.086 3.051,-0.61 5.696,-5.492 -0.204,-7.526 -5.899,-2.034 -7.323,-1.424 -9.967,-4.476 -2.644,-3.052 -8.544,-0.407 -10.171,2.848" /></g><g
           transform="translate(106.75,342.3899)"
           id="g1201"><path
             id="path1203"
             style="fill:#ee760a;fill-opacity:1;fill-rule:nonzero;stroke:#1d1d1b;stroke-width:1;stroke-linecap:butt;stroke-linejoin:miter;stroke-miterlimit:10;stroke-dasharray:none;stroke-opacity:1"
             d="M 0,0 C 0,0 -8.5,-3 -4.25,-6.75 0,-10.5 3.5,-11.25 6.5,-13.75 9.5,-16.25 15,-16 15,-16" /></g><g
           transform="translate(166.8125,236.0779)"
           id="g1205"><path
             id="path1207"
             style="fill:#ee760a;fill-opacity:1;fill-rule:nonzero;stroke:#1d1d1b;stroke-width:1;stroke-linecap:butt;stroke-linejoin:miter;stroke-miterlimit:10;stroke-dasharray:none;stroke-opacity:1"
             d="m 0,0 c 0,0 -0.812,-40.021 -11.063,-47.438 0,0 6.751,3.75 15.75,5 9.001,1.25 25,-1.25 34.251,2.5 9.25,3.75 21,9.251 25.75,9.501 4.75,0.25 8.958,6.291 9.625,9.125 0,0 -2.792,21.291 -9.959,21.958 -5.418,0.503 -21.5,2.5 -31,2.5 -9.5,0 -33.292,-5.709 -33.292,-5.709" /></g><g
           transform="translate(120.7764,318.7077)"
           id="g1209"><path
             id="path1211"
             style="fill:#ee760a;fill-opacity:1;fill-rule:nonzero;stroke:none"
             d="m 0,0 c 0,0 -4.026,-15.818 -6.776,-27.317 -2.75,-11.5 -4.75,-57.5 -4.25,-72 0.5,-14.5 -5.75,-37.417 -8.5,-39.417 0,0 13.093,25.104 -6.157,24.104 0,0 4.657,43.063 6.657,52.313 2,9.25 4.5,22 3.25,28.5 -1.25,6.5 5.193,29.734 15.776,33.817" /></g><g
           transform="translate(120.7764,318.7077)"
           id="g1213"><path
             id="path1215"
             style="fill:none;stroke:#1d1d1b;stroke-width:1;stroke-linecap:butt;stroke-linejoin:miter;stroke-miterlimit:10;stroke-dasharray:none;stroke-opacity:1"
             d="m 0,0 c 0,0 -4.026,-15.818 -6.776,-27.317 -2.75,-11.5 -4.75,-57.5 -4.25,-72 0.5,-14.5 -5.75,-37.417 -8.5,-39.417 0,0 13.093,25.104 -6.157,24.104 0,0 4.657,43.063 6.657,52.313 2,9.25 4.5,22 3.25,28.5 -1.25,6.5 5.193,29.734 15.776,33.817 z" /></g><g
           transform="translate(107.75,319.8899)"
           id="g1217"><path
             id="path1219"
             style="fill:#ee760a;fill-opacity:1;fill-rule:nonzero;stroke:#1d1d1b;stroke-width:1;stroke-linecap:butt;stroke-linejoin:miter;stroke-miterlimit:10;stroke-dasharray:none;stroke-opacity:1"
             d="m 0,0 c 0,0 -13.5,-0.5 -16.25,-25.5 -2.75,-25 -2.5,-29.25 -1,-35.75 1.5,-6.5 -0.75,-11 0,-16 0.75,-5 0.5,-22.5 -0.25,-27.25" /></g><g
           transform="translate(90.75,291.2654)"
           id="g1221"><path
             id="path1223"
             style="fill:#ee760a;fill-opacity:1;fill-rule:nonzero;stroke:#1d1d1b;stroke-width:1;stroke-linecap:butt;stroke-linejoin:miter;stroke-miterlimit:10;stroke-dasharray:none;stroke-opacity:1"
             d="M 0,0 C 0,0 3.75,0.5 5.625,3.875 7.5,7.25 8.875,13.25 11,14.75 c 2.125,1.5 4.75,2.5 4.875,4.875 C 16,22 19.937,25.25 21.562,25.25" /></g><g
           transform="translate(91.6665,260.9734)"
           id="g1225"><path
             id="path1227"
             style="fill:#ee760a;fill-opacity:1;fill-rule:nonzero;stroke:#1d1d1b;stroke-width:1;stroke-linecap:butt;stroke-linejoin:miter;stroke-miterlimit:10;stroke-dasharray:none;stroke-opacity:1"
             d="m 0,0 c 0,0 5.515,5.268 6.45,8.25 0.935,2.981 2.991,12.325 4.3,14.015" /></g><g
           transform="translate(147.8335,320.7234)"
           id="g1229"><path
             id="path1231"
             style="fill:none;stroke:#1d1d1b;stroke-width:1;stroke-linecap:butt;stroke-linejoin:miter;stroke-miterlimit:10;stroke-dasharray:none;stroke-opacity:1"
             d="M 0,0 C 0,0 1.524,4.076 4.792,5.792" /></g><g
           transform="translate(137.875,350.1399)"
           id="g1233"><path
             id="path1235"
             style="fill:#ee760a;fill-opacity:1;fill-rule:nonzero;stroke:#1d1d1b;stroke-width:1;stroke-linecap:butt;stroke-linejoin:miter;stroke-miterlimit:10;stroke-dasharray:none;stroke-opacity:1"
             d="M 0,0 C 0,0 -0.083,1.625 1.333,0.958 2.75,0.292 1.792,-0.5 1.375,-1.083 0.958,-1.667 1.208,-2.917 2,-2.5 c 0.792,0.417 0.833,2 1.667,1.833 0.833,-0.166 2.125,-2.625 0.458,-2.791" /></g><g
           transform="translate(169.168,300.0569)"
           id="g1237"><path
             id="path1239"
             style="fill:#ee760a;fill-opacity:1;fill-rule:nonzero;stroke:#1d1d1b;stroke-width:1;stroke-linecap:butt;stroke-linejoin:miter;stroke-miterlimit:10;stroke-dasharray:none;stroke-opacity:1"
             d="M 0,0 C 0,0 2.815,5.917 0.296,8.833 -2.223,11.75 -10.001,12 -10.001,12" /></g><g
           transform="translate(149.25,319.0593)"
           id="g1241"><path
             id="path1243"
             style="fill:none;stroke:#1d1d1b;stroke-width:1;stroke-linecap:butt;stroke-linejoin:miter;stroke-miterlimit:10;stroke-dasharray:none;stroke-opacity:1"
             d="m 0,0 c 0,0 13.206,1.399 16.529,-3.209 3.324,-4.608 -1.661,-4.444 -1.661,-4.444" /></g><g
           transform="translate(200.5,275.8904)"
           id="g1245"><path
             id="path1247"
             style="fill:#ee760a;fill-opacity:1;fill-rule:nonzero;stroke:#1d1d1b;stroke-width:1;stroke-linecap:butt;stroke-linejoin:miter;stroke-miterlimit:10;stroke-dasharray:none;stroke-opacity:1"
             d="m 0,0 c 0,0 13.625,5.875 19.625,4.875 3.701,-0.617 9,0 11.375,0.625 2.375,0.625 10.375,4.125 13.375,-2 3,-6.125 3.875,-8.125 4.125,-12.375 0.25,-4.25 1.333,-5.959 2.625,-8.75 C 52.438,-20.464 67.5,-59.5 69,-68.5 c 1.5,-9 9.5,-31.5 13,-35 3.5,-3.5 21.833,-19.5 26,-20.667 4.167,-1.167 11.5,-2.833 11.5,-5 0,-2.167 -4.167,-2.5 -16.333,-0.333 -12.167,2.166 -14,3.5 -21.667,3.5 -7.667,0 -12.5,1 -13.667,7.166 -1.166,6.167 -1.666,9.5 -1.166,12.084 0.5,2.583 -20.834,42.416 -25.5,45.583 -4.667,3.167 -6.667,5 -9,16.167 -2.334,11.166 -5.5,22.333 -4.334,25.166 1.167,2.834 4.334,3.5 4.334,3.5" /></g><g
           transform="translate(261.6665,224.3064)"
           id="g1249"><path
             id="path1251"
             style="fill:#ee760a;fill-opacity:1;fill-rule:nonzero;stroke:#1d1d1b;stroke-width:1;stroke-linecap:butt;stroke-linejoin:miter;stroke-miterlimit:10;stroke-dasharray:none;stroke-opacity:1"
             d="M 0,0 C 0,0 -13.917,-2.5 -18.417,-9.666" /></g><g
           transform="translate(263.0835,221.8904)"
           id="g1253"><path
             id="path1255"
             style="fill:#ee760a;fill-opacity:1;fill-rule:nonzero;stroke:#1d1d1b;stroke-width:1;stroke-linecap:butt;stroke-linejoin:miter;stroke-miterlimit:10;stroke-dasharray:none;stroke-opacity:1"
             d="M 0,0 C 0,0 -13.917,-2.5 -18.417,-9.667" /></g><g
           transform="translate(266.1665,215.1404)"
           id="g1257"><path
             id="path1259"
             style="fill:#ee760a;fill-opacity:1;fill-rule:nonzero;stroke:#1d1d1b;stroke-width:1;stroke-linecap:butt;stroke-linejoin:miter;stroke-miterlimit:10;stroke-dasharray:none;stroke-opacity:1"
             d="M 0,0 C 0,0 -13.917,-2.25 -18.25,-8.167" /></g><g
           transform="translate(267.1665,213.2234)"
           id="g1261"><path
             id="path1263"
             style="fill:#ee760a;fill-opacity:1;fill-rule:nonzero;stroke:#1d1d1b;stroke-width:1;stroke-linecap:butt;stroke-linejoin:miter;stroke-miterlimit:10;stroke-dasharray:none;stroke-opacity:1"
             d="M 0,0 C 0,0 -13.917,-2.25 -18.25,-8.167" /></g><g
           transform="translate(269.1665,205.5564)"
           id="g1265"><path
             id="path1267"
             style="fill:#ee760a;fill-opacity:1;fill-rule:nonzero;stroke:#1d1d1b;stroke-width:1;stroke-linecap:butt;stroke-linejoin:miter;stroke-miterlimit:10;stroke-dasharray:none;stroke-opacity:1"
             d="M 0,0 C 0,0 -7.5,1.084 -16.417,-6.333" /></g><g
           transform="translate(269.9165,203.4734)"
           id="g1269"><path
             id="path1271"
             style="fill:#ee760a;fill-opacity:1;fill-rule:nonzero;stroke:#1d1d1b;stroke-width:1;stroke-linecap:butt;stroke-linejoin:miter;stroke-miterlimit:10;stroke-dasharray:none;stroke-opacity:1"
             d="M 0,0 C 0,0 -7.5,1.083 -16.417,-6.333" /></g><g
           transform="translate(271.3335,194.0564)"
           id="g1273"><path
             id="path1275"
             style="fill:#ee760a;fill-opacity:1;fill-rule:nonzero;stroke:#1d1d1b;stroke-width:1;stroke-linecap:butt;stroke-linejoin:miter;stroke-miterlimit:10;stroke-dasharray:none;stroke-opacity:1"
             d="M 0,0 C 0,0 -7.25,0.25 -12.583,-5.083" /></g><g
           transform="translate(272.4165,191.4734)"
           id="g1277"><path
             id="path1279"
             style="fill:#ee760a;fill-opacity:1;fill-rule:nonzero;stroke:#1d1d1b;stroke-width:1;stroke-linecap:butt;stroke-linejoin:miter;stroke-miterlimit:10;stroke-dasharray:none;stroke-opacity:1"
             d="M 0,0 C 0,0 -7.25,0.25 -12.583,-5.083" /></g><g
           transform="translate(275.4165,185.3904)"
           id="g1281"><path
             id="path1283"
             style="fill:#ee760a;fill-opacity:1;fill-rule:nonzero;stroke:#1d1d1b;stroke-width:1;stroke-linecap:butt;stroke-linejoin:miter;stroke-miterlimit:10;stroke-dasharray:none;stroke-opacity:1"
             d="M 0,0 C 0,0 -7.917,0.833 -12.25,-5.084" /></g><g
           transform="translate(276.25,183.3904)"
           id="g1285"><path
             id="path1287"
             style="fill:#ee760a;fill-opacity:1;fill-rule:nonzero;stroke:#1d1d1b;stroke-width:1;stroke-linecap:butt;stroke-linejoin:miter;stroke-miterlimit:10;stroke-dasharray:none;stroke-opacity:1"
             d="M 0,0 C 0,0 -7.917,0.833 -12.25,-5.084" /></g><g
           transform="translate(279.1665,176.3064)"
           id="g1289"><path
             id="path1291"
             style="fill:#ee760a;fill-opacity:1;fill-rule:nonzero;stroke:#1d1d1b;stroke-width:1;stroke-linecap:butt;stroke-linejoin:miter;stroke-miterlimit:10;stroke-dasharray:none;stroke-opacity:1"
             d="M 0,0 C 0,0 -8.667,-1.583 -10.833,-5.166" /></g><g
           transform="translate(279.6665,174.3064)"
           id="g1293"><path
             id="path1295"
             style="fill:#ee760a;fill-opacity:1;fill-rule:nonzero;stroke:#1d1d1b;stroke-width:1;stroke-linecap:butt;stroke-linejoin:miter;stroke-miterlimit:10;stroke-dasharray:none;stroke-opacity:1"
             d="M 0,0 C 0,0 -8.667,-1.583 -10.833,-5.166" /></g><g
           transform="translate(268.3335,167.0564)"
           id="g1297"><path
             id="path1299"
             style="fill:#ee760a;fill-opacity:1;fill-rule:nonzero;stroke:#1d1d1b;stroke-width:1;stroke-linecap:butt;stroke-linejoin:miter;stroke-miterlimit:10;stroke-dasharray:none;stroke-opacity:1"
             d="M 0,0 22.667,-17.5" /></g><g
           transform="translate(267.6665,161.2234)"
           id="g1301"><path
             id="path1303"
             style="fill:#ee760a;fill-opacity:1;fill-rule:nonzero;stroke:#1d1d1b;stroke-width:1;stroke-linecap:butt;stroke-linejoin:miter;stroke-miterlimit:10;stroke-dasharray:none;stroke-opacity:1"
             d="M 0,0 C 0,0 4.167,-1.833 6.5,-4.667 8.833,-7.5 10.333,-8 12.833,-9 c 2.5,-1 4.334,-2.5 4.334,-2.5" /></g><g
           transform="translate(284.4585,168.3064)"
           id="g1305"><path
             id="path1307"
             style="fill:#ee760a;fill-opacity:1;fill-rule:nonzero;stroke:#1d1d1b;stroke-width:1;stroke-linecap:butt;stroke-linejoin:miter;stroke-miterlimit:10;stroke-dasharray:none;stroke-opacity:1"
             d="M 0,0 C 0,0 -5.125,-4.333 -7.958,-5.5" /></g><g
           transform="translate(292.3335,163.2234)"
           id="g1309"><path
             id="path1311"
             style="fill:#ee760a;fill-opacity:1;fill-rule:nonzero;stroke:#1d1d1b;stroke-width:1;stroke-linecap:butt;stroke-linejoin:miter;stroke-miterlimit:10;stroke-dasharray:none;stroke-opacity:1"
             d="M 0,0 C 0,0 -4.625,-5.458 -8.792,-6.292" /></g><g
           transform="translate(298.1665,158.3904)"
           id="g1313"><path
             id="path1315"
             style="fill:#ee760a;fill-opacity:1;fill-rule:nonzero;stroke:#1d1d1b;stroke-width:1;stroke-linecap:butt;stroke-linejoin:miter;stroke-miterlimit:10;stroke-dasharray:none;stroke-opacity:1"
             d="M 0,0 C 0,0 -3.833,-6.375 -7,-7.209" /></g><g
           transform="translate(239.3335,172.3904)"
           id="g1317"><path
             id="path1319"
             style="fill:#ee760a;fill-opacity:1;fill-rule:nonzero;stroke:#1d1d1b;stroke-width:1;stroke-linecap:butt;stroke-linejoin:miter;stroke-miterlimit:10;stroke-dasharray:none;stroke-opacity:1"
             d="M 0,0 C 0,0 12.667,3.166 25.667,-0.167" /></g><g
           transform="translate(239.3335,169.2234)"
           id="g1321"><path
             id="path1323"
             style="fill:#ee760a;fill-opacity:1;fill-rule:nonzero;stroke:#1d1d1b;stroke-width:1;stroke-linecap:butt;stroke-linejoin:miter;stroke-miterlimit:10;stroke-dasharray:none;stroke-opacity:1"
             d="M 0,0 C 0,0 12.667,3.167 25.667,-0.167" /></g><g
           transform="translate(241.3335,161.0564)"
           id="g1325"><path
             id="path1327"
             style="fill:#ee760a;fill-opacity:1;fill-rule:nonzero;stroke:#1d1d1b;stroke-width:1;stroke-linecap:butt;stroke-linejoin:miter;stroke-miterlimit:10;stroke-dasharray:none;stroke-opacity:1"
             d="M 0,0 C 0,0 13.167,3.667 22.667,0.5" /></g><g
           transform="translate(241.5,158.8904)"
           id="g1329"><path
             id="path1331"
             style="fill:#ee760a;fill-opacity:1;fill-rule:nonzero;stroke:#1d1d1b;stroke-width:1;stroke-linecap:butt;stroke-linejoin:miter;stroke-miterlimit:10;stroke-dasharray:none;stroke-opacity:1"
             d="M 0,0 C 0,0 5.143,1.432 11.32,1.733 15.026,1.914 19.104,1.687 22.667,0.5" /></g><g
           transform="translate(259.1665,149.7234)"
           id="g1333"><path
             id="path1335"
             style="fill:#ee760a;fill-opacity:1;fill-rule:nonzero;stroke:#1d1d1b;stroke-width:1;stroke-linecap:butt;stroke-linejoin:miter;stroke-miterlimit:10;stroke-dasharray:none;stroke-opacity:1"
             d="M 0,0 C 0,0 -4.667,5.333 -6.333,9.833" /></g><g
           transform="translate(255.5,148.8904)"
           id="g1337"><path
             id="path1339"
             style="fill:#ee760a;fill-opacity:1;fill-rule:nonzero;stroke:#1d1d1b;stroke-width:1;stroke-linecap:butt;stroke-linejoin:miter;stroke-miterlimit:10;stroke-dasharray:none;stroke-opacity:1"
             d="M 0,0 C 0,0 -4.667,5.333 -6.333,9.833" /></g><g
           transform="translate(244.3335,149.5564)"
           id="g1341"><path
             id="path1343"
             style="fill:#ee760a;fill-opacity:1;fill-rule:nonzero;stroke:#1d1d1b;stroke-width:1;stroke-linecap:butt;stroke-linejoin:miter;stroke-miterlimit:10;stroke-dasharray:none;stroke-opacity:1"
             d="m 0,0 c 0,0 3.167,0.5 6.833,-0.5 3.667,-1 8.667,-1 8.667,-1" /></g><g
           transform="translate(259.8335,136.0564)"
           id="g1345"><path
             id="path1347"
             style="fill:#ee760a;fill-opacity:1;fill-rule:nonzero;stroke:#1d1d1b;stroke-width:1;stroke-linecap:butt;stroke-linejoin:miter;stroke-miterlimit:10;stroke-dasharray:none;stroke-opacity:1"
             d="M 0,0 C 0,0 -7.667,3.334 -14.167,0.334" /></g><g
           transform="translate(260.8335,123.0564)"
           id="g1349"><path
             id="path1351"
             style="fill:#ee760a;fill-opacity:1;fill-rule:nonzero;stroke:#1d1d1b;stroke-width:1;stroke-linecap:butt;stroke-linejoin:miter;stroke-miterlimit:10;stroke-dasharray:none;stroke-opacity:1"
             d="M 0,0 C 0,0 -8.833,3 -14.667,0.167" /></g><g
           transform="translate(251,122.5564)"
           id="g1353"><path
             id="path1355"
             style="fill:#ee760a;fill-opacity:1;fill-rule:nonzero;stroke:#1d1d1b;stroke-width:1;stroke-linecap:butt;stroke-linejoin:miter;stroke-miterlimit:10;stroke-dasharray:none;stroke-opacity:1"
             d="M 0,0 C 0,0 4.333,-5.666 3.5,-11.166" /></g><g
           transform="translate(255,122.2234)"
           id="g1357"><path
             id="path1359"
             style="fill:#ee760a;fill-opacity:1;fill-rule:nonzero;stroke:#1d1d1b;stroke-width:1;stroke-linecap:butt;stroke-linejoin:miter;stroke-miterlimit:10;stroke-dasharray:none;stroke-opacity:1"
             d="M 0,0 C 0,0 4.333,-5.667 3.5,-11.167" /></g><g
           transform="translate(244,113.3904)"
           id="g1361"><path
             id="path1363"
             style="fill:#ee760a;fill-opacity:1;fill-rule:nonzero;stroke:#1d1d1b;stroke-width:1;stroke-linecap:butt;stroke-linejoin:miter;stroke-miterlimit:10;stroke-dasharray:none;stroke-opacity:1"
             d="M 0,0 C 0,0 13.667,-6.667 15.333,-13.667" /></g><g
           transform="translate(243.3335,108.7234)"
           id="g1365"><path
             id="path1367"
             style="fill:#ee760a;fill-opacity:1;fill-rule:nonzero;stroke:#1d1d1b;stroke-width:1;stroke-linecap:butt;stroke-linejoin:miter;stroke-miterlimit:10;stroke-dasharray:none;stroke-opacity:1"
             d="M 0,0 C 0,0 9.292,-6.646 10.292,-9.146" /></g><g
           transform="translate(295.1387,96.7185)"
           id="g1369"><path
             id="path1371"
             style="fill:#ee760a;fill-opacity:1;fill-rule:nonzero;stroke:#1d1d1b;stroke-width:1;stroke-linecap:butt;stroke-linejoin:miter;stroke-miterlimit:10;stroke-dasharray:none;stroke-opacity:1"
             d="m 0,0 c 0,0 3.695,3.338 1.861,5.172 -1.833,1.833 -4.5,2.666 -7.833,2.666 -3.333,0 -8.979,3.771 -10.5,4.334 -1.447,0.535 -9,0.166 -17,-6.667" /></g><g
           transform="translate(271.5,101.7234)"
           id="g1373"><path
             id="path1375"
             style="fill:#ee760a;fill-opacity:1;fill-rule:nonzero;stroke:#1d1d1b;stroke-width:1;stroke-linecap:butt;stroke-linejoin:miter;stroke-miterlimit:10;stroke-dasharray:none;stroke-opacity:1"
             d="M 0,0 C 0,0 6.531,6.573 11.156,5.073" /></g><g
           transform="translate(254.8335,108.7234)"
           id="g1377"><path
             id="path1379"
             style="fill:#ee760a;fill-opacity:1;fill-rule:nonzero;stroke:#1d1d1b;stroke-width:1;stroke-linecap:butt;stroke-linejoin:miter;stroke-miterlimit:10;stroke-dasharray:none;stroke-opacity:1"
             d="M 0,0 C 0,0 15.917,5.292 20.167,0.229" /></g><g
           transform="translate(109.8335,217.7234)"
           id="g1381"><path
             id="path1383"
             style="fill:#ee760a;fill-opacity:1;fill-rule:nonzero;stroke:#1d1d1b;stroke-width:1;stroke-linecap:butt;stroke-linejoin:miter;stroke-miterlimit:10;stroke-dasharray:none;stroke-opacity:1"
             d="m 0,0 c 0,0 10.5,-21.5 13.833,-25.5 3.334,-4 6.5,-6.5 12.334,-5.833 5.833,0.666 9,1.5 9,1.5" /></g><g
           transform="translate(107.125,183.4529)"
           id="g1385"><path
             id="path1387"
             style="fill:#ee760a;fill-opacity:1;fill-rule:nonzero;stroke:#1d1d1b;stroke-width:1;stroke-linecap:butt;stroke-linejoin:miter;stroke-miterlimit:10;stroke-dasharray:none;stroke-opacity:1"
             d="m 0,0 c 0,0 -0.956,-6.292 0.169,-9.042 1.125,-2.75 3.625,-1.437 4.313,-0.437 0.687,1 7.393,11.354 11.643,10.854 4.25,-0.5 12.75,1.563 12.75,1.563" /></g><g
           transform="translate(213.3335,239.2234)"
           id="g1389"><path
             id="path1391"
             style="fill:none;stroke:#1d1d1b;stroke-width:1;stroke-linecap:butt;stroke-linejoin:miter;stroke-miterlimit:10;stroke-dasharray:none;stroke-opacity:1"
             d="M 0,0 C 0,0 8.917,13.417 13.667,14.292" /></g><g
           transform="translate(244.875,253.2654)"
           id="g1393"><path
             id="path1395"
             style="fill:#ee760a;fill-opacity:1;fill-rule:nonzero;stroke:#1d1d1b;stroke-width:1;stroke-linecap:butt;stroke-linejoin:miter;stroke-miterlimit:10;stroke-dasharray:none;stroke-opacity:1"
             d="m 0,0 c 0,0 3.5,-5.812 5.25,-9.563 1.75,-3.75 4,-7.062 4.25,-7.124" /></g><g
           transform="translate(242.0625,249.7654)"
           id="g1397"><path
             id="path1399"
             style="fill:#ee760a;fill-opacity:1;fill-rule:nonzero;stroke:#1d1d1b;stroke-width:1;stroke-linecap:butt;stroke-linejoin:miter;stroke-miterlimit:10;stroke-dasharray:none;stroke-opacity:1"
             d="m 0,0 c 0,0 2,-2.563 4.187,-5.812 2.188,-3.251 2.563,-4.376 3.313,-7.376 0.75,-2.999 4.75,-7.687 4.75,-7.687" /></g><g
           transform="translate(134.7085,352.1819)"
           id="g1401"><path
             id="path1403"
             style="fill:#010101;fill-opacity:1;fill-rule:nonzero;stroke:none"
             d="m 0,0 c 0,0 -3.385,-5.299 6.444,-9.048 9.83,-3.748 -0.538,-11.782 3.636,-17.405 4.174,-5.623 -3.77,2.277 -4.174,5.623 C 5.501,-17.482 2,-18.152 2,-18.152 c 0,0 -0.403,-1.071 1.078,-2.41 1.481,-1.338 0.067,-5.355 -1.212,-5.623 -1.279,-0.268 -2.626,2.209 -2.02,4.017 0.606,1.807 -2.625,3.213 -2.625,3.213 0,0 -1.347,-2.945 0.201,-4.686 1.549,-1.74 -1.952,-3.882 -2.558,-2.343 -0.606,1.54 -0.808,2.812 -0.202,4.284 0.606,1.473 -2.222,2.812 -2.76,0.737 -0.539,-2.076 -1.548,-3.079 -0.741,-4.887 0.808,-1.808 -2.895,-1.942 -2.895,2.209 0,4.15 2.543,3.081 1.279,7.163 0,0 -2.827,-0.134 -2.962,-2.878 -0.135,-2.745 1.548,-4.084 0.404,-5.356 -1.145,-1.272 -3.568,0.468 -3.972,3.882 0,0 -1.818,-1.673 -4.713,1.139 -2.895,2.811 -3.77,5.823 -3.77,5.823 0,0 3.03,-3.882 5.79,-3.012 2.76,0.87 2.895,2.812 2.895,2.812 0,0 -1.683,-0.067 -4.511,1.405 -2.828,1.473 -4.623,2.455 -7.361,2.098 -2.738,-0.357 -5.117,-1.741 -7.81,-0.669 -2.693,1.071 -5.745,7.675 4.488,7.675 10.234,0 29.643,2.398 31.977,3.559" /></g><g
           transform="translate(134.7085,352.1819)"
           id="g1405"><path
             id="path1407"
             style="fill:none;stroke:#1d1d1b;stroke-width:1;stroke-linecap:butt;stroke-linejoin:miter;stroke-miterlimit:10;stroke-dasharray:none;stroke-opacity:1"
             d="m 0,0 c 0,0 -3.385,-5.299 6.444,-9.048 9.83,-3.748 -0.538,-11.782 3.636,-17.405 4.174,-5.623 -3.77,2.277 -4.174,5.623 C 5.501,-17.482 2,-18.152 2,-18.152 c 0,0 -0.403,-1.071 1.078,-2.41 1.481,-1.338 0.067,-5.355 -1.212,-5.623 -1.279,-0.268 -2.626,2.209 -2.02,4.017 0.606,1.807 -2.625,3.213 -2.625,3.213 0,0 -1.347,-2.945 0.201,-4.686 1.549,-1.74 -1.952,-3.882 -2.558,-2.343 -0.606,1.54 -0.808,2.812 -0.202,4.284 0.606,1.473 -2.222,2.812 -2.76,0.737 -0.539,-2.076 -1.548,-3.079 -0.741,-4.887 0.808,-1.808 -2.895,-1.942 -2.895,2.209 0,4.15 2.543,3.081 1.279,7.163 0,0 -2.827,-0.134 -2.962,-2.878 -0.135,-2.745 1.548,-4.084 0.404,-5.356 -1.145,-1.272 -3.568,0.468 -3.972,3.882 0,0 -1.818,-1.673 -4.713,1.139 -2.895,2.811 -3.77,5.823 -3.77,5.823 0,0 3.03,-3.882 5.79,-3.012 2.76,0.87 2.895,2.812 2.895,2.812 0,0 -1.683,-0.067 -4.511,1.405 -2.828,1.473 -4.623,2.455 -7.361,2.098 -2.738,-0.357 -5.117,-1.741 -7.81,-0.669 -2.693,1.071 -5.745,7.675 4.488,7.675 10.234,0 29.643,2.398 31.977,3.559 z" /></g><g
           transform="translate(173.5996,298.7649)"
           id="g1409"><path
             id="path1411"
             style="fill:none;stroke:#1d1d1b;stroke-width:1;stroke-linecap:butt;stroke-linejoin:miter;stroke-miterlimit:10;stroke-dasharray:none;stroke-opacity:1"
             d="M 0,0 C 1.583,2.795 4.833,16.814 6.667,19.524 8.5,22.235 6.265,24.5 6.265,24.5" /></g><g
           transform="translate(185.8335,323.6399)"
           id="g1413"><path
             id="path1415"
             style="fill:none;stroke:#1d1d1b;stroke-width:1;stroke-linecap:butt;stroke-linejoin:miter;stroke-miterlimit:10;stroke-dasharray:none;stroke-opacity:1"
             d="m 0,0 c -5.417,-3.5 -10.083,2.833 -12.75,5.583 -2.667,2.75 -5.417,-1.666 -5.417,-1.666 0,0 -2.208,-3.834 -3.25,-4.084 -1.865,-0.447 -1.5,1.75 -1.5,1.75" /></g><g
           transform="translate(175.0625,356.0149)"
           id="g1417"><path
             id="path1419"
             style="fill:none;stroke:#1d1d1b;stroke-width:2;stroke-linecap:butt;stroke-linejoin:miter;stroke-miterlimit:10;stroke-dasharray:none;stroke-opacity:1"
             d="M 0,0 C 0,0 -0.437,-0.875 -1.625,-1.687 -3.958,-3.283 -6.562,-6.187 -6.5,-7.125" /></g><g
           transform="translate(275.0513,438.2961)"
           id="g1421"><path
             id="path1423"
             style="fill:#ee760a;fill-opacity:1;fill-rule:nonzero;stroke:none"
             d="m 0,0 -4.263,0.627 -7.913,7.187 -11.843,9.981 c 0,0 -15.067,5.445 -2.604,14.145 12.465,8.7 43.398,7.491 43.398,7.491 l 4.275,-1.514 4.355,-3.195 8.27,-19.22 2.778,-2.378 8.023,-3.943 -25.469,-28.541 -2.619,6.211 3.303,8.235 1.631,4.274 -0.577,1.664 -1.267,0.403 -1.58,-1.147 -2.169,-3.273 -2.227,-3.962 -1.471,-0.868 -2.185,0.791 -1.596,1.317 -2.961,1.86 1.629,5.225 -4.28,-2.64" /></g><g
           transform="translate(361.0293,366.1159)"
           id="g1425"><path
             id="path1427"
             style="fill:#ee760a;fill-opacity:1;fill-rule:nonzero;stroke:#1d1d1b;stroke-width:1;stroke-linecap:butt;stroke-linejoin:miter;stroke-miterlimit:10;stroke-dasharray:none;stroke-opacity:1"
             d="m 0,0 c -5.491,-1.28 -26.655,5.792 -26.655,5.792 0,0 -4.614,-5.176 -4.339,-9.837 0.273,-4.662 -3.23,-15.055 -5.359,-17.696 -2.129,-2.64 -5.597,-14.083 -6.397,-18.08 -0.799,-3.997 0.231,-6.543 0.015,-7.356 -0.536,-2.012 -1.936,-1.467 -2.098,-3.573 -0.163,-2.108 -0.175,-1.758 -1.406,-3.317 -1.233,-1.56 -1.229,-3.704 -0.897,-4.584 0.748,-1.983 -0.597,-3.057 -2.774,-4.298 -2.177,-1.24 -7.959,0.55 -8.957,-1.002 -0.999,-1.552 -6.174,-0.442 -6.174,-0.442 -1.819,-1.462 -5.361,-0.297 -5.361,-0.297 0,0 -3.335,-1.514 -5.63,0.744 -2.295,2.258 2.436,3.936 2.436,3.936 -0.059,1.749 1.679,2.158 4.109,2.823 2.429,0.666 5.954,3.471 5.954,3.471 l -0.065,8.872 c 0.11,10.59 2.312,14.556 3.41,18.953 1.096,4.396 0.728,6.096 0.576,10.606 -0.153,4.51 2.736,15.817 3.243,19.259 0.507,3.442 -0.97,14.913 -9.159,26.937 -8.19,12.023 -4.062,28.12 -4.062,28.12 1.852,6.323 3.075,7.347 4.685,11.134 0.753,1.772 -0.23,4.507 -2.36,3.034 -2.13,-1.473 -4.156,-6.685 -5.211,-7.974 -1.012,-1.238 -2.879,-1.14 -5.253,1.24 -0.667,0.67 -1.511,1.534 -2.96,1.86 L -61.08,81.244 0,0" /></g><g
           transform="translate(276.6069,440.6941)"
           id="g1429"><path
             id="path1431"
             style="fill:#ee760a;fill-opacity:1;fill-rule:nonzero;stroke:none"
             d="M 0,0 0.168,-4.998 8.017,-7.177 20.55,3.194 30.212,-5.181 35.86,0 24.598,11.103 Z" /></g><g
           transform="translate(329.1758,378.9294)"
           id="g1433"><path
             id="path1435"
             style="fill:#ee760a;fill-opacity:1;fill-rule:nonzero;stroke:none"
             d="M 0,0 40.367,-17.65 29.761,-29.514 54.969,-64.935 67.099,-53.77 52.276,29.778 41.246,37.911 -8.476,13.973" /></g><g
           transform="translate(278.7642,435.3537)"
           id="g1437"><path
             id="path1439"
             style="fill:#ee760a;fill-opacity:1;fill-rule:nonzero;stroke:#1d1d1b;stroke-width:1;stroke-linecap:butt;stroke-linejoin:miter;stroke-miterlimit:10;stroke-dasharray:none;stroke-opacity:1"
             d="M 0,0 C 0,0 -1.718,-1.635 -2.484,-0.347 -3.25,0.941 1.862,2.675 3.205,4.312" /></g><g
           transform="translate(276.7456,436.571)"
           id="g1441"><path
             id="path1443"
             style="fill:#ee760a;fill-opacity:1;fill-rule:nonzero;stroke:#1d1d1b;stroke-width:1;stroke-linecap:butt;stroke-linejoin:miter;stroke-miterlimit:10;stroke-dasharray:none;stroke-opacity:1"
             d="m 0,0 c -0.904,1.786 -4.542,2.659 -4.542,2.659 -2.07,-3.345 -2.827,-2.949 -3.327,-2.966 -0.628,-0.021 -0.984,2.001 -2.245,4.761 -1.261,2.759 -8.676,8.796 -8.676,8.796" /></g><g
           transform="translate(272.6895,452.5578)"
           id="g1445"><path
             id="path1447"
             style="fill:#010101;fill-opacity:1;fill-rule:nonzero;stroke:none"
             d="m 0,0 c 0,0 -1.958,0.927 -3.497,-0.176 -1.54,-1.103 -3.848,-3.633 -2.623,-5.343 1.226,-1.71 3.391,-0.119 4.292,0.845 C -0.926,-3.709 1.555,-1.115 0,0" /></g><g
           transform="translate(272.6895,452.5578)"
           id="g1449"><path
             id="path1451"
             style="fill:none;stroke:#1d1d1b;stroke-width:1;stroke-linecap:butt;stroke-linejoin:miter;stroke-miterlimit:10;stroke-dasharray:none;stroke-opacity:1"
             d="m 0,0 c 0,0 -1.958,0.927 -3.497,-0.176 -1.54,-1.103 -3.848,-3.633 -2.623,-5.343 1.226,-1.71 3.391,-0.119 4.292,0.845 C -0.926,-3.709 1.555,-1.115 0,0 Z" /></g><g
           transform="translate(293.1445,460.8874)"
           id="g1453"><path
             id="path1455"
             style="fill:#010101;fill-opacity:1;fill-rule:nonzero;stroke:none"
             d="M 0,0 C 0,0 11.673,-12.326 14.421,-6.083 17.169,0.159 16.316,4.645 14.159,6.285 12.003,7.924 6.583,13.969 4.357,13.038 2.131,12.107 -4.335,9.943 -6.224,8.244 c 0,0 -18.271,-12.214 -25.644,-12.852 -7.374,-0.638 -11.456,0.393 -12.551,-4.081 -1.095,-4.475 4.452,-5.066 8.881,-2.503 4.428,2.562 11.206,9.329 16.88,7.263 5.675,-2.066 10.382,-3.153 12.402,-5.342 2.02,-2.19 5.702,-0.587 4.963,2.891 0,0 -1.316,4.624 -3.3,5.35 -1.984,0.725 -2.926,2.418 -3.194,2.951 -2.06,4.096 2.538,5.111 2.538,5.111 C -2.218,7.68 0.083,5.888 -0.455,3.379 -0.455,3.379 -0.83,1.173 0,0" /></g><g
           transform="translate(293.1445,460.8874)"
           id="g1457"><path
             id="path1459"
             style="fill:none;stroke:#1d1d1b;stroke-width:1;stroke-linecap:butt;stroke-linejoin:miter;stroke-miterlimit:10;stroke-dasharray:none;stroke-opacity:1"
             d="M 0,0 C 0,0 11.673,-12.326 14.421,-6.083 17.169,0.159 16.316,4.645 14.159,6.285 12.003,7.924 6.583,13.969 4.357,13.038 2.131,12.107 -4.335,9.943 -6.224,8.244 c 0,0 -18.271,-12.214 -25.644,-12.852 -7.374,-0.638 -11.456,0.393 -12.551,-4.081 -1.095,-4.475 4.452,-5.066 8.881,-2.503 4.428,2.562 11.206,9.329 16.88,7.263 5.675,-2.066 10.382,-3.153 12.402,-5.342 2.02,-2.19 5.702,-0.587 4.963,2.891 0,0 -1.316,4.624 -3.3,5.35 -1.984,0.725 -2.926,2.418 -3.194,2.951 -2.06,4.096 2.538,5.111 2.538,5.111 C -2.218,7.68 0.083,5.888 -0.455,3.379 -0.455,3.379 -0.83,1.173 0,0 Z" /></g><g
           transform="translate(252.4136,462.5608)"
           id="g1461"><path
             id="path1463"
             style="fill:#ee760a;fill-opacity:1;fill-rule:nonzero;stroke:none"
             d="M 0,0 C 0.917,-2.061 0.516,-4.241 -0.897,-4.871 -2.311,-5.5 -4.2,-4.339 -5.117,-2.278 -6.035,-0.218 -5.633,1.963 -4.22,2.592 -2.807,3.221 -0.918,2.061 0,0" /></g><g
           transform="translate(252.4136,462.5608)"
           id="g1465"><path
             id="path1467"
             style="fill:none;stroke:#1d1d1b;stroke-width:1;stroke-linecap:butt;stroke-linejoin:miter;stroke-miterlimit:10;stroke-dasharray:none;stroke-opacity:1"
             d="M 0,0 C 0.917,-2.061 0.516,-4.241 -0.897,-4.871 -2.311,-5.5 -4.2,-4.339 -5.117,-2.278 -6.035,-0.218 -5.633,1.963 -4.22,2.592 -2.807,3.221 -0.918,2.061 0,0 Z" /></g><g
           transform="translate(260.7422,463.5822)"
           id="g1469"><path
             id="path1471"
             style="fill:#ee760a;fill-opacity:1;fill-rule:nonzero;stroke:none"
             d="m 0,0 c 0.768,-1.726 0.432,-3.552 -0.751,-4.078 -1.184,-0.527 -2.766,0.445 -3.534,2.17 -0.768,1.725 -0.432,3.551 0.751,4.078 C -2.351,2.697 -0.769,1.725 0,0" /></g><g
           transform="translate(260.7422,463.5822)"
           id="g1473"><path
             id="path1475"
             style="fill:none;stroke:#1d1d1b;stroke-width:1;stroke-linecap:butt;stroke-linejoin:miter;stroke-miterlimit:10;stroke-dasharray:none;stroke-opacity:1"
             d="m 0,0 c 0.768,-1.726 0.432,-3.552 -0.751,-4.078 -1.184,-0.527 -2.766,0.445 -3.534,2.17 -0.768,1.725 -0.432,3.551 0.751,4.078 C -2.351,2.697 -0.769,1.725 0,0 Z" /></g><g
           transform="translate(268.1392,464.3191)"
           id="g1477"><path
             id="path1479"
             style="fill:#ee760a;fill-opacity:1;fill-rule:nonzero;stroke:none"
             d="m 0,0 c 0.542,-1.219 0.305,-2.508 -0.531,-2.88 -0.835,-0.372 -1.952,0.314 -2.495,1.533 -0.543,1.218 -0.306,2.508 0.53,2.88 C -1.66,1.905 -0.542,1.219 0,0" /></g><g
           transform="translate(268.1392,464.3191)"
           id="g1481"><path
             id="path1483"
             style="fill:none;stroke:#1d1d1b;stroke-width:1;stroke-linecap:butt;stroke-linejoin:miter;stroke-miterlimit:10;stroke-dasharray:none;stroke-opacity:1"
             d="m 0,0 c 0.542,-1.219 0.305,-2.508 -0.531,-2.88 -0.835,-0.372 -1.952,0.314 -2.495,1.533 -0.543,1.218 -0.306,2.508 0.53,2.88 C -1.66,1.905 -0.542,1.219 0,0 Z" /></g><g
           transform="translate(273.8691,465.8493)"
           id="g1485"><path
             id="path1487"
             style="fill:#ee760a;fill-opacity:1;fill-rule:nonzero;stroke:none"
             d="m 0,0 c 0.262,-0.613 0.134,-1.256 -0.286,-1.437 -0.421,-0.179 -0.974,0.172 -1.237,0.785 -0.262,0.613 -0.134,1.256 0.286,1.436 C -0.816,0.964 -0.263,0.613 0,0" /></g><g
           transform="translate(273.8691,465.8493)"
           id="g1489"><path
             id="path1491"
             style="fill:none;stroke:#1d1d1b;stroke-width:1;stroke-linecap:butt;stroke-linejoin:miter;stroke-miterlimit:10;stroke-dasharray:none;stroke-opacity:1"
             d="m 0,0 c 0.262,-0.613 0.134,-1.256 -0.286,-1.437 -0.421,-0.179 -0.974,0.172 -1.237,0.785 -0.262,0.613 -0.134,1.256 0.286,1.436 C -0.816,0.964 -0.263,0.613 0,0 Z" /></g><g
           transform="translate(284.0337,469.5852)"
           id="g1493"><path
             id="path1495"
             style="fill:#ee760a;fill-opacity:1;fill-rule:nonzero;stroke:#1d1d1b;stroke-width:1;stroke-linecap:butt;stroke-linejoin:miter;stroke-miterlimit:10;stroke-dasharray:none;stroke-opacity:1"
             d="M 0,0 C -7.253,-1.87 -26.305,0.573 -38.603,-2.786" /></g><g
           transform="translate(248.4287,470.2361)"
           id="g1497"><path
             id="path1499"
             style="fill:#010101;fill-opacity:1;fill-rule:nonzero;stroke:none"
             d="m 0,0 c 0,0 1.53,5.434 4.383,6.231 2.853,0.797 4.057,6.836 7.648,8.665 2.121,1.08 16.648,4.92 24.104,0.812 C 43.591,11.601 47.577,6.519 47.673,5.978 47.769,5.436 39.575,1.423 33.888,1.543 28.202,1.663 12.679,2.607 8.296,0.98 3.914,-0.646 0,0 0,0" /></g><g
           transform="translate(248.4287,470.2361)"
           id="g1501"><path
             id="path1503"
             style="fill:none;stroke:#1d1d1b;stroke-width:1;stroke-linecap:butt;stroke-linejoin:miter;stroke-miterlimit:10;stroke-dasharray:none;stroke-opacity:1"
             d="m 0,0 c 0,0 1.53,5.434 4.383,6.231 2.853,0.797 4.057,6.836 7.648,8.665 2.121,1.08 16.648,4.92 24.104,0.812 C 43.591,11.601 47.577,6.519 47.673,5.978 47.769,5.436 39.575,1.423 33.888,1.543 28.202,1.663 12.679,2.607 8.296,0.98 3.914,-0.646 0,0 0,0 Z" /></g><g
           transform="translate(315.9482,378.0461)"
           id="g1505"><path
             id="path1507"
             style="fill:#ee760a;fill-opacity:1;fill-rule:nonzero;stroke:none"
             d="m 0,0 c 0,0 -17.064,10.999 -20.828,32.59 -3.764,21.592 22.97,39.073 28.146,44.852 5.177,5.78 20.921,30.598 29.995,31.604 9.074,1.006 19.647,6.034 54.356,-12.18 34.71,-18.213 72.305,-38.898 73.914,-58.928 -3.476,-0.817 -11.291,2.422 -11.291,2.422 0,0 10.276,-13.899 -2.514,-8.569 -12.791,5.329 -20.723,9.732 -20.723,9.732 0,0 17.882,-8.583 15.991,-12.538 -1.891,-3.956 -20.067,4.15 -20.067,4.15 0,0 3.478,-2.761 1.255,-4.94 -3.175,-3.114 -16.693,-1.504 -21.065,5.705 0,0 4.09,-4.081 2.286,-6.01 -1.803,-1.929 -8.901,-0.385 -14.812,4.087 -5.912,4.471 -9.374,5.356 -9.374,5.356 0,0 3.982,-2.667 2.608,-3.492 -1.373,-0.825 -5.898,-0.51 -7.496,0.681 -1.597,1.192 -5.453,0.128 -7.984,1.288 0,0 1.663,-1.949 -0.035,-3.582 -1.696,-1.634 -9.383,1.241 -12.073,2.551 0,0 3.275,-1.33 -2.039,-3.027 -5.313,-1.697 -8.562,1.113 -8.562,1.113 0,0 0.744,-1.26 -0.741,-2.243 -1.485,-0.985 -6.31,0.137 -6.31,0.137 0,0 3.694,-2.211 2.26,-4.711 -1.433,-2.501 -9.696,0.14 -9.696,0.14 0,0 2.664,-2.829 0.64,-5.116 -2.025,-2.287 -4.828,-2.264 -8.048,-0.271 1.357,-2.173 4.345,-4.174 1.826,-5.66 -2.519,-1.486 -6.625,-0.924 -8.904,0.867 0,0 5.134,-3.33 3.299,-4.325 -1.835,-0.996 -5.639,-5.206 -9.926,0.015 0,0 4.2,-3.361 1.981,-6.822 C 13.851,1.415 7.99,5.538 7.625,5.992 7.259,6.447 11.913,0.971 9.244,-0.492 4.973,-2.834 0,0 0,0" /></g><g
           transform="translate(315.9482,378.0461)"
           id="g1509"><path
             id="path1511"
             style="fill:none;stroke:#1d1d1b;stroke-width:1;stroke-linecap:butt;stroke-linejoin:miter;stroke-miterlimit:10;stroke-dasharray:none;stroke-opacity:1"
             d="m 0,0 c 0,0 -17.064,10.999 -20.828,32.59 -3.764,21.592 22.97,39.073 28.146,44.852 5.177,5.78 20.921,30.598 29.995,31.604 9.074,1.006 19.647,6.034 54.356,-12.18 34.71,-18.213 72.305,-38.898 73.914,-58.928 -3.476,-0.817 -11.291,2.422 -11.291,2.422 0,0 10.276,-13.899 -2.514,-8.569 -12.791,5.329 -20.723,9.732 -20.723,9.732 0,0 17.882,-8.583 15.991,-12.538 -1.891,-3.956 -20.067,4.15 -20.067,4.15 0,0 3.478,-2.761 1.255,-4.94 -3.175,-3.114 -16.693,-1.504 -21.065,5.705 0,0 4.09,-4.081 2.286,-6.01 -1.803,-1.929 -8.901,-0.385 -14.812,4.087 -5.912,4.471 -9.374,5.356 -9.374,5.356 0,0 3.982,-2.667 2.608,-3.492 -1.373,-0.825 -5.898,-0.51 -7.496,0.681 -1.597,1.192 -5.453,0.128 -7.984,1.288 0,0 1.663,-1.949 -0.035,-3.582 -1.696,-1.634 -9.383,1.241 -12.073,2.551 0,0 3.275,-1.33 -2.039,-3.027 -5.313,-1.697 -8.562,1.113 -8.562,1.113 0,0 0.744,-1.26 -0.741,-2.243 -1.485,-0.985 -6.31,0.137 -6.31,0.137 0,0 3.694,-2.211 2.26,-4.711 -1.433,-2.501 -9.696,0.14 -9.696,0.14 0,0 2.664,-2.829 0.64,-5.116 -2.025,-2.287 -4.828,-2.264 -8.048,-0.271 1.357,-2.173 4.345,-4.174 1.826,-5.66 -2.519,-1.486 -6.625,-0.924 -8.904,0.867 0,0 5.134,-3.33 3.299,-4.325 -1.835,-0.996 -5.639,-5.206 -9.926,0.015 0,0 4.2,-3.361 1.981,-6.822 C 13.851,1.415 7.99,5.538 7.625,5.992 7.259,6.447 11.913,0.971 9.244,-0.492 4.973,-2.834 0,0 0,0 Z" /></g><g
           transform="translate(296.4658,424.1867)"
           id="g1513"><path
             id="path1515"
             style="fill:#ee760a;fill-opacity:1;fill-rule:nonzero;stroke:#1d1d1b;stroke-width:1;stroke-linecap:butt;stroke-linejoin:miter;stroke-miterlimit:10;stroke-dasharray:none;stroke-opacity:1"
             d="m 0,0 c 0,0 7.131,2.849 10.764,5.929 3.632,3.081 12.083,8.737 16.742,11.385 4.659,2.648 11.16,8.394 16.445,13.243 5.286,4.848 11.908,11.61 13.272,12.746 1.362,1.136 14.727,17.304 15.395,20.596" /></g><g
           transform="translate(371.2803,487.8469)"
           id="g1517"><path
             id="path1519"
             style="fill:#ee760a;fill-opacity:1;fill-rule:nonzero;stroke:#1d1d1b;stroke-width:1;stroke-linecap:butt;stroke-linejoin:miter;stroke-miterlimit:10;stroke-dasharray:none;stroke-opacity:1"
             d="m 0,0 c -0.667,-3.292 -14.472,-20.563 -15.834,-21.699 -1.363,-1.135 -7.985,-7.898 -13.271,-12.746 -5.286,-4.849 -11.787,-10.595 -16.446,-13.243 -4.659,-2.648 -13.109,-8.304 -16.742,-11.385 -3.633,-3.08 -9.978,-5.836 -9.978,-5.836 0,0 35.167,-27.878 39.066,-29.747" /></g><g
           transform="translate(362.3086,350.3142)"
           id="g1521"><path
             id="path1523"
             style="fill:#ee760a;fill-opacity:1;fill-rule:nonzero;stroke:#1d1d1b;stroke-width:1;stroke-linecap:butt;stroke-linejoin:miter;stroke-miterlimit:10;stroke-dasharray:none;stroke-opacity:1"
             d="m 0,0 c -0.691,-3.76 1.067,-7.437 4.526,-13.042 3.458,-5.604 15.125,-15.72 21.045,-21.593 5.919,-5.872 3.283,-9.143 0.699,-10.329 -0.938,-0.431 -7.796,0.697 -16.459,-1.399 -15.745,-3.811 -34.342,-1.524 -33.136,-1.524 1.891,0 -15.494,0.962 -6.583,6.79 8.911,5.827 19.697,2.221 22.235,0.827 2.538,-1.394 9.357,-0.463 12.671,0.505 3.315,0.968 4.604,-0.312 7.807,1.664 3.203,1.976 -8.014,11.407 -11.11,15.506 -3.096,4.099 -21.76,26.667 -9.597,35.329 12.163,8.661 21.554,-2.076 21.554,-2.076 6.403,-6.515 14.387,-6.521 18.792,-3.259 4.406,3.262 2.116,6.738 7.675,10.011 7.08,4.168 11.946,-8.102 11.946,-8.102" /></g><g
           transform="translate(384.3467,319.1291)"
           id="g1525"><path
             id="path1527"
             style="fill:#ee760a;fill-opacity:1;fill-rule:nonzero;stroke:#1d1d1b;stroke-width:1;stroke-linecap:butt;stroke-linejoin:miter;stroke-miterlimit:10;stroke-dasharray:none;stroke-opacity:1"
             d="m 0,0 c 0,0 13.718,-13.671 19.039,-23.122 5.345,-9.492 14.165,-15.884 25.817,-15.18 11.654,0.704 21.319,10.723 20.802,26.048 -0.545,16.161 -7.096,30.098 -6.161,39.315 0.935,9.217 9.8,16.006 19.24,12.989 10.974,-3.508 7.867,-15.67 7.389,-16.974 -1.628,-4.303 0.532,-11.464 8.163,-11.518 7.63,-0.055 8.648,10.588 4.042,13.644 -4.028,2.672 -6.784,5.858 -9.067,9.283 -1.475,2.212 -7.19,11.808 -17.143,11.473 -9.952,-0.336 -16.963,-9.446 -18.174,-15.092 -1.211,-5.645 0.849,-18.155 3.743,-29.38 3.07,-11.903 2.341,-21.792 -4.172,-27.149 -6.514,-5.357 -17.055,-6.988 -22.391,-1.095 -5.336,5.891 -5.872,8.473 -7.649,14.717 -1.917,6.736 0.714,15.749 5.17,22.126 4.456,6.378 11.976,23.446 6.056,37.414 -5.919,13.968 -21.585,37.008 -41.795,45.356" /></g><g
           transform="translate(305.4424,306.6467)"
           id="g1529"><path
             id="path1531"
             style="fill:#ee760a;fill-opacity:1;fill-rule:nonzero;stroke:#1d1d1b;stroke-width:1;stroke-linecap:butt;stroke-linejoin:miter;stroke-miterlimit:10;stroke-dasharray:none;stroke-opacity:1"
             d="M 0,0 C 0,0 2.735,-5.099 5.651,-0.685" /></g><g
           transform="translate(290.627,301.426)"
           id="g1533"><path
             id="path1535"
             style="fill:#ee760a;fill-opacity:1;fill-rule:nonzero;stroke:#1d1d1b;stroke-width:1;stroke-linecap:butt;stroke-linejoin:miter;stroke-miterlimit:10;stroke-dasharray:none;stroke-opacity:1"
             d="M 0,0 C 0,0 -0.659,6.309 1.921,7.413 5.138,8.788 11.542,9.55 11.542,9.55" /></g><g
           transform="translate(299.4932,317.0612)"
           id="g1537"><path
             id="path1539"
             style="fill:#ee760a;fill-opacity:1;fill-rule:nonzero;stroke:#1d1d1b;stroke-width:1;stroke-linecap:butt;stroke-linejoin:miter;stroke-miterlimit:10;stroke-dasharray:none;stroke-opacity:1"
             d="M 0,0 C 0,0 5.017,1.42 6.382,-1.974" /></g><g
           transform="translate(315.8467,377.7063)"
           id="g1541"><path
             id="path1543"
             style="fill:#ee760a;fill-opacity:1;fill-rule:nonzero;stroke:#1d1d1b;stroke-width:1;stroke-linecap:butt;stroke-linejoin:miter;stroke-miterlimit:10;stroke-dasharray:none;stroke-opacity:1"
             d="m 0,0 c 0,0 -5.833,-5.702 -7.43,-27.602 -1.595,-21.899 0.406,-30.311 -2.274,-34.903" /></g><g
           transform="translate(323.5732,384.0383)"
           id="g1545"><path
             id="path1547"
             style="fill:#ee760a;fill-opacity:1;fill-rule:nonzero;stroke:#1d1d1b;stroke-width:1;stroke-linecap:butt;stroke-linejoin:miter;stroke-miterlimit:10;stroke-dasharray:none;stroke-opacity:1"
             d="M 0,0 C -3.246,3.223 -18.123,8.6 -27.266,21.341" /></g><g
           transform="translate(297.3833,416.7551)"
           id="g1549"><path
             id="path1551"
             style="fill:#ee760a;fill-opacity:1;fill-rule:nonzero;stroke:#1d1d1b;stroke-width:1;stroke-linecap:butt;stroke-linejoin:miter;stroke-miterlimit:10;stroke-dasharray:none;stroke-opacity:1"
             d="M 0,0 C 0,0 20.25,-19.454 24.723,-21.054" /></g><g
           transform="translate(305.1104,425.9529)"
           id="g1553"><path
             id="path1555"
             style="fill:#ee760a;fill-opacity:1;fill-rule:nonzero;stroke:#1d1d1b;stroke-width:1;stroke-linecap:butt;stroke-linejoin:miter;stroke-miterlimit:10;stroke-dasharray:none;stroke-opacity:1"
             d="M 0,0 C 0,0 26.543,-21.943 32.811,-24.466" /></g><g
           transform="translate(351.1494,404.2341)"
           id="g1557"><path
             id="path1559"
             style="fill:#ee760a;fill-opacity:1;fill-rule:nonzero;stroke:#1d1d1b;stroke-width:1;stroke-linecap:butt;stroke-linejoin:miter;stroke-miterlimit:10;stroke-dasharray:none;stroke-opacity:1"
             d="M 0,0 C 0,0 -35.645,21.319 -38.591,27.098" /></g><g
           transform="translate(317.0762,434.6111)"
           id="g1561"><path
             id="path1563"
             style="fill:#ee760a;fill-opacity:1;fill-rule:nonzero;stroke:#1d1d1b;stroke-width:1;stroke-linecap:butt;stroke-linejoin:miter;stroke-miterlimit:10;stroke-dasharray:none;stroke-opacity:1"
             d="m 0,0 c 0,0 14.166,-8.403 19.964,-13.46 5.799,-5.058 18.606,-10.758 21.545,-12.346" /></g><g
           transform="translate(325.2939,439.6667)"
           id="g1565"><path
             id="path1567"
             style="fill:#ee760a;fill-opacity:1;fill-rule:nonzero;stroke:#1d1d1b;stroke-width:1;stroke-linecap:butt;stroke-linejoin:miter;stroke-miterlimit:10;stroke-dasharray:none;stroke-opacity:1"
             d="m 0,0 c 0,0 15.712,-10.002 19.009,-13.81 3.297,-3.808 13.403,-8.382 16.469,-10.28" /></g><g
           transform="translate(376.2373,412.8254)"
           id="g1569"><path
             id="path1571"
             style="fill:#ee760a;fill-opacity:1;fill-rule:nonzero;stroke:#1d1d1b;stroke-width:1;stroke-linecap:butt;stroke-linejoin:miter;stroke-miterlimit:10;stroke-dasharray:none;stroke-opacity:1"
             d="m 0,0 c 0,0 -10.882,3.151 -17.901,11.044 -7.02,7.893 -25.168,19.414 -26.939,19.979" /></g><g
           transform="translate(337.7295,448.9397)"
           id="g1573"><path
             id="path1575"
             style="fill:#ee760a;fill-opacity:1;fill-rule:nonzero;stroke:#1d1d1b;stroke-width:1;stroke-linecap:butt;stroke-linejoin:miter;stroke-miterlimit:10;stroke-dasharray:none;stroke-opacity:1"
             d="m 0,0 c 0,0 19.169,-12.111 28.796,-19.416 9.626,-7.305 18.054,-14.313 21.82,-15.667" /></g><g
           transform="translate(346.3857,452.134)"
           id="g1577"><path
             id="path1579"
             style="fill:#ee760a;fill-opacity:1;fill-rule:nonzero;stroke:#1d1d1b;stroke-width:1;stroke-linecap:butt;stroke-linejoin:miter;stroke-miterlimit:10;stroke-dasharray:none;stroke-opacity:1"
             d="m 0,0 c 0.388,-0.362 15.159,-12.147 22.932,-16.388 7.772,-4.24 21.043,-12.048 21.997,-14.392 0.954,-2.344 9.902,-5.974 9.902,-5.974" /></g><g
           transform="translate(349.126,459.8977)"
           id="g1581"><path
             id="path1583"
             style="fill:#ee760a;fill-opacity:1;fill-rule:nonzero;stroke:#1d1d1b;stroke-width:1;stroke-linecap:butt;stroke-linejoin:miter;stroke-miterlimit:10;stroke-dasharray:none;stroke-opacity:1"
             d="m 0,0 c 0,0 6.045,-1.49 7.378,-3.946 1.334,-2.457 5.903,-4.429 8.831,-5.956 2.928,-1.528 15.145,-11.496 18.707,-13.253 3.562,-1.756 24.513,-12.072 28.766,-15.805" /></g><g
           transform="translate(442.9268,411.1809)"
           id="g1585"><path
             id="path1587"
             style="fill:#ee760a;fill-opacity:1;fill-rule:nonzero;stroke:#1d1d1b;stroke-width:1;stroke-linecap:butt;stroke-linejoin:miter;stroke-miterlimit:10;stroke-dasharray:none;stroke-opacity:1"
             d="m 0,0 c 0,0 -13.591,6.452 -18.868,10.902 -5.278,4.45 -17.286,11.924 -23.389,14.845 -6.101,2.921 -23.467,13.467 -26.686,16.235 -3.221,2.768 -16.839,7.547 -17.819,10.641" /></g><g
           transform="translate(358.3105,469.1447)"
           id="g1589"><path
             id="path1591"
             style="fill:#ee760a;fill-opacity:1;fill-rule:nonzero;stroke:#1d1d1b;stroke-width:1;stroke-linecap:butt;stroke-linejoin:miter;stroke-miterlimit:10;stroke-dasharray:none;stroke-opacity:1"
             d="m 0,0 c 0,0 18.498,-10.758 24.746,-14.3 6.248,-3.541 25.013,-14.79 33.763,-18.373 8.751,-3.582 26.849,-15.298 30.183,-16.902" /></g><g
           transform="translate(470.2402,418.4065)"
           id="g1593"><path
             id="path1595"
             style="fill:#ee760a;fill-opacity:1;fill-rule:nonzero;stroke:#1d1d1b;stroke-width:1;stroke-linecap:butt;stroke-linejoin:miter;stroke-miterlimit:10;stroke-dasharray:none;stroke-opacity:1"
             d="m 0,0 c 0,0 -3.155,3.625 -15.497,9.838 -12.341,6.213 -18.147,7.768 -31.75,14.314 -13.604,6.545 -53.418,26.341 -59.32,30.769" /></g><g
           transform="translate(367.0928,479.488)"
           id="g1597"><path
             id="path1599"
             style="fill:#ee760a;fill-opacity:1;fill-rule:nonzero;stroke:#1d1d1b;stroke-width:1;stroke-linecap:butt;stroke-linejoin:miter;stroke-miterlimit:10;stroke-dasharray:none;stroke-opacity:1"
             d="m 0,0 c 0,0 25.918,-11.967 31.544,-15.613 5.626,-3.646 23.49,-9.214 27.111,-12.761 3.622,-3.546 49.788,-27.505 53.281,-27.22" /></g><g
           transform="translate(372.8047,483.1823)"
           id="g1601"><path
             id="path1603"
             style="fill:#ee760a;fill-opacity:1;fill-rule:nonzero;stroke:#1d1d1b;stroke-width:1;stroke-linecap:butt;stroke-linejoin:miter;stroke-miterlimit:10;stroke-dasharray:none;stroke-opacity:1"
             d="m 0,0 c 0,0 26.239,-11.623 31.338,-14.453 5.099,-2.829 30.995,-15.609 34.912,-17.558 7.175,-3.567 22.501,-14.5 25.084,-16.914" /></g><g
           transform="translate(290.1392,465.6794)"
           id="g1605"><path
             id="path1607"
             style="fill:#ee760a;fill-opacity:1;fill-rule:nonzero;stroke:#1d1d1b;stroke-width:1;stroke-linecap:butt;stroke-linejoin:miter;stroke-miterlimit:10;stroke-dasharray:none;stroke-opacity:1"
             d="m 0,0 c 0,0 -4.016,0.407 -2.641,-2.048 1.375,-2.455 1.9,1.569 2.931,-0.36 1.255,-2.35 -1.016,-1.759 -1.016,-1.759" /></g><g
           transform="translate(307.9424,455.1277)"
           id="g1609"><path
             id="path1611"
             style="fill:none;stroke:#1d1d1b;stroke-width:1;stroke-linecap:butt;stroke-linejoin:miter;stroke-miterlimit:10;stroke-dasharray:none;stroke-opacity:1"
             d="M 0,0 C 1.502,-3.764 8.275,-5.928 8.275,-5.928" /></g><g
           transform="translate(281.9692,439.6657)"
           id="g1613"><path
             id="path1615"
             style="fill:#ee760a;fill-opacity:1;fill-rule:nonzero;stroke:none"
             d="M 0,0 C 0,0 -2.25,-3.426 -3.205,-4.312 -4.16,-5.198 -3.173,-6.271 -2.397,-5.916 -1.621,-5.562 -0.126,-1.446 0,0" /></g><g
           transform="translate(281.9692,439.6657)"
           id="g1617"><path
             id="path1619"
             style="fill:none;stroke:#1d1d1b;stroke-width:1;stroke-linecap:butt;stroke-linejoin:miter;stroke-miterlimit:10;stroke-dasharray:none;stroke-opacity:1"
             d="M 0,0 C 0,0 -2.25,-3.426 -3.205,-4.312 -4.16,-5.198 -3.173,-6.271 -2.397,-5.916 -1.621,-5.562 -0.126,-1.446 0,0 Z" /></g><g
           transform="translate(299.0098,422.9382)"
           id="g1621"><path
             id="path1623"
             style="fill:#ffffff;fill-opacity:1;fill-rule:nonzero;stroke:#1d1d1b;stroke-width:1;stroke-linecap:butt;stroke-linejoin:miter;stroke-miterlimit:10;stroke-dasharray:none;stroke-opacity:1"
             d="M 0,0 C 0,0 -2.997,-1.393 -3.204,-1.442" /></g><g
           transform="translate(313.7998,318.4348)"
           id="g1625"><path
             id="path1627"
             style="fill:#ee760a;fill-opacity:1;fill-rule:nonzero;stroke:#1d1d1b;stroke-width:1;stroke-linecap:butt;stroke-linejoin:miter;stroke-miterlimit:10;stroke-dasharray:none;stroke-opacity:1"
             d="m 0,0 c 0,0 -3.111,1.396 -6.007,-1.766 -2.894,-3.162 -3.797,-2.379 -4.966,-4.795 -1.169,-2.416 -0.715,-2.646 -3.883,-3.252 -3.169,-0.607 -2.956,-6.898 -2.956,-6.898" /></g><g
           transform="translate(299.8652,303.2693)"
           id="g1629"><path
             id="path1631"
             style="fill:#ee760a;fill-opacity:1;fill-rule:nonzero;stroke:#1d1d1b;stroke-width:1;stroke-linecap:butt;stroke-linejoin:miter;stroke-miterlimit:10;stroke-dasharray:none;stroke-opacity:1"
             d="M 0,0 C 0,0 -0.725,4.441 1.791,4.026 4.307,3.61 4.736,6.038 4.736,6.038" /></g><g
           transform="translate(217.4966,98.0261)"
           id="g1633"><path
             id="path1635"
             style="fill:none;stroke:#1d1d1b;stroke-width:1;stroke-linecap:butt;stroke-linejoin:miter;stroke-miterlimit:10;stroke-dasharray:none;stroke-opacity:1"
             d="m 0,0 c 9.191,0.56 25.432,0.963 42.503,-1.386 27.25,-3.75 60.75,5.5 94.25,2 13.046,-1.363 35,-3.25 40.75,-0.5" /></g></g></g></g></svg>